<svg xmlns="http://www.w3.org/2000/svg" xmlns:xlink="http://www.w3.org/1999/xlink" width="1920" height="1080" viewBox="0 0 1920 1080">
  <defs>
    <clipPath id="clip-path">
      <rect id="Rectangle_1" data-name="Rectangle 1" width="1920" height="1080" fill="none"/>
    </clipPath>
    <clipPath id="clip-path-2">
      <path id="Path_77" data-name="Path 77" d="M917.909,708.078c-6.211,3.667-13.059,7.646-19.282,11.205,15.8,65.627,57.587,126.619,77.213,152.686l19.281-11.205C975.495,834.7,933.714,773.7,917.909,708.078Z" fill="none"/>
    </clipPath>
    <clipPath id="clip-path-3">
      <path id="Path_87" data-name="Path 87" d="M975.93,839.926l19.282-11.205c-18.678-27.218-44.658-70.845-55.586-116.226L920.344,723.7C931.273,769.081,957.253,812.708,975.93,839.926Z" fill="none"/>
    </clipPath>
    <clipPath id="clip-path-4">
      <path id="Path_90" data-name="Path 90" d="M1008.649,823.651a100.178,100.178,0,0,1-13.437,5.07L975.93,839.926a100.108,100.108,0,0,0,13.438-5.07Z" fill="none"/>
    </clipPath>
    <clipPath id="clip-path-5">
      <path id="Path_96" data-name="Path 96" d="M1032.235,847.517a112.619,112.619,0,0,1-37.114,13.247L975.84,871.969a112.584,112.584,0,0,0,37.113-13.247Z" fill="none"/>
    </clipPath>
    <clipPath id="clip-path-6">
      <path id="Path_99" data-name="Path 99" d="M1008.649,823.651c-.073.038-.165.1-.236.137l-19.045,11.068c2.467-1.144,4.968-2.432,7.465-3.884l19.282-11.2C1013.618,821.219,1011.117,822.507,1008.649,823.651Z" fill="none"/>
    </clipPath>
    <clipPath id="clip-path-7">
      <path id="Path_103" data-name="Path 103" d="M902.795,599.347c-5.158,3.01-14.168,8.246-19.282,11.205-.255,19.112,1.99,54.232,15.114,108.731l19.282-11.205C904.784,653.579,902.54,618.458,902.795,599.347Z" fill="none"/>
    </clipPath>
    <clipPath id="clip-path-8">
      <path id="Path_107" data-name="Path 107" d="M926.461,635.355c-5.158,3.01-14.168,8.246-19.282,11.205,1.462,18.093,5.055,43.478,13.165,77.14l19.282-11.205C931.516,678.833,927.923,653.448,926.461,635.355Z" fill="none"/>
    </clipPath>
    <clipPath id="clip-path-9">
      <path id="Path_112" data-name="Path 112" d="M976.438,660.825l19.282-11.206c-21.02-.6-43.978-5.276-68.56-14.011l-.7-.253L907.179,646.56l.7.253C932.461,655.548,955.419,660.229,976.438,660.825Z" fill="none"/>
    </clipPath>
    <clipPath id="clip-path-10">
      <path id="Path_118" data-name="Path 118" d="M976.522,631.411,995.8,620.205c-35.423,1.421-71.21-11.208-93.008-20.858l-19.282,11.205C905.312,620.2,941.1,632.832,976.522,631.411Z" fill="none"/>
    </clipPath>
    <clipPath id="clip-path-11">
      <path id="Path_120" data-name="Path 120" d="M996.827,830.976l19.281-11.205a77.256,77.256,0,0,0,35.157-42.821,270.263,270.263,0,0,0,13.559-61.71l-19.281,11.205a270.316,270.316,0,0,1-13.559,61.71A77.264,77.264,0,0,1,996.827,830.976Z" fill="none"/>
    </clipPath>
    <clipPath id="clip-path-12">
      <path id="Path_123" data-name="Path 123" d="M1045.543,726.445l19.282-11.205c-.236-.187-.463-.368-.7-.554a553.27,553.27,0,0,1-68.406-65.067l-19.282,11.206a553.421,553.421,0,0,0,68.407,65.066C1045.08,726.077,1045.307,726.259,1045.543,726.445Z" fill="none"/>
    </clipPath>
    <clipPath id="clip-path-13">
      <path id="Path_127" data-name="Path 127" d="M1012.944,858.727l19.281-11.205c16.062-9.334,32.094-24.686,40.72-49.934,13.487-39.5,15.915-71.749,15.759-90.887l-19.282,11.205c.156,19.138-2.271,51.391-15.758,90.887C1045.037,834.041,1029.005,849.394,1012.944,858.727Z" fill="none"/>
    </clipPath>
    <clipPath id="clip-path-14">
      <path id="Path_132" data-name="Path 132" d="M1069.422,717.906,1088.7,706.7a505.634,505.634,0,0,1-92.9-86.5l-19.281,11.206A505.591,505.591,0,0,0,1069.422,717.906Z" fill="none"/>
    </clipPath>
    <clipPath id="clip-NetIso_3">
      <rect width="1920" height="1080"/>
    </clipPath>
  </defs>
  <g id="NetIso_3" data-name="NetIso 3" clip-path="url(#clip-NetIso_3)">
    <rect width="1920" height="1080" fill="#fff"/>
    <rect id="Background" width="1920" height="1080" fill="#f7faff"/>
    <g id="Artwork">
      <g id="Group_2" data-name="Group 2">
        <g id="Group_1" data-name="Group 1" clip-path="url(#clip-path)">
          <path id="Path_1" data-name="Path 1" d="M679.443,1091.554,2003.97,846.5v307.884s-587.616,34.218-650.243,54.178S679.443,1091.554,679.443,1091.554Z" fill="#cddefc"/>
          <path id="Path_2" data-name="Path 2" d="M-1.615,436.875,979.493-35.4,583.336-46.628Z" fill="#cddefc"/>
          <path id="Path_3" data-name="Path 3" d="M-97.841,492.122,822.176-36.1-256.975-83.673Z" fill="#ebf2fe"/>
          <path id="Path_4" data-name="Path 4" d="M-44.716,839.926,663.6,1258.757H-91.937Z" fill="#cddefc"/>
          <path id="Path_5" data-name="Path 5" d="M301.083,1136.073,2135.592,920.217l-287.669,236.3Z" fill="#ebf2fe"/>
          <path id="Path_6" data-name="Path 6" d="M1124.582-42.779l934.74,243.666L2020.961-97.441Z" fill="#cddefc"/>
        </g>
      </g>
      <g id="Group_90" data-name="Group 90">
        <g id="Group_6" data-name="Group 6">
          <ellipse id="Ellipse_1" data-name="Ellipse 1" cx="22.68" cy="11.165" rx="22.68" ry="11.165" transform="translate(1250.51 336.219)" fill="#043179"/>
          <g id="Group_5" data-name="Group 5">
            <g id="Group_3" data-name="Group 3">
              <path id="Path_7" data-name="Path 7" d="M1299.845,302.1l-.1,2.461-.88,21.488c0,4.77-4.22,8.145-6.736,9.733-4.9,3.093-11.5,4.8-18.582,4.8s-13.678-1.705-18.583-4.8c-2.515-1.588-6.737-4.963-6.737-9.733l-.518-12.664-.463-11.285Z" fill="#82acf8"/>
              <path id="Path_8" data-name="Path 8" d="M1299.845,302.1l-.1,2.461s-17.925,20.677-52.036,8.824l-.463-11.285Z" fill="#043179"/>
              <path id="Path_9" data-name="Path 9" d="M1304.364,285.165a12.63,12.63,0,0,1-.468,3.4c-2.546,9.119-15.165,16.048-30.35,16.048s-27.806-6.929-30.351-16.048a12.592,12.592,0,0,1-.469-3.4c0-10.74,13.8-19.446,30.82-19.446S1304.364,274.425,1304.364,285.165Z" fill="#cddefc"/>
              <path id="Path_10" data-name="Path 10" d="M1304.364,285.165v6.793c0,10.74-13.8,19.446-30.818,19.446s-30.82-8.706-30.82-19.446v-6.793a12.592,12.592,0,0,0,.469,3.4c2.545,9.119,15.166,16.048,30.351,16.048s27.8-6.929,30.35-16.048A12.63,12.63,0,0,0,1304.364,285.165Z" fill="#82acf8"/>
              <path id="Path_11" data-name="Path 11" d="M1273.546,300.481c-7.463,0-14.42-1.8-19.59-5.058-2.652-1.674-7.1-5.231-7.1-10.258s4.449-8.585,7.1-10.258c5.17-3.262,12.127-5.059,19.59-5.059s14.419,1.8,19.589,5.059c2.652,1.673,7.1,5.231,7.1,10.258s-4.449,8.584-7.1,10.258C1287.965,298.685,1281.008,300.481,1273.546,300.481Z" fill="#043179"/>
            </g>
            <g id="Group_4" data-name="Group 4">
              <path id="Path_12" data-name="Path 12" d="M1258.678,285.653c-2.1-.61-4.336-.544-6.5-.859s-4.437-1.134-5.639-2.964c-2.325-3.541.506-8.7-1.581-12.383-1.266-2.238-4.019-3.222-6.588-3.34s-5.124.445-7.7.452-5.357-.682-6.932-2.715c-2.085-2.69-1.3-6.524-.534-9.841s1.22-7.307-1.241-9.658c-2.023-1.934-5.166-1.9-7.792-2.865a12.369,12.369,0,0,1-6.752-6.663,20.133,20.133,0,0,1-1.441-9.539c.532-7.89,4.525-15.637,11.087-20.05s15.652-5.1,22.469-1.087,10.668,12.785,8.36,20.349c-.828,2.715-2.36,5.629-1.18,8.211a6.812,6.812,0,0,0,4.47,3.3c1.832.543,3.766.734,5.545,1.431a10.325,10.325,0,0,1,2.425,17.876,42.563,42.563,0,0,0-3.62,2.509,3.893,3.893,0,0,0-1.367,3.932c.556,1.586,2.458,2.249,4.138,2.319s3.421-.228,5.007.329a6.593,6.593,0,0,1,3.874,4.732,19.492,19.492,0,0,1,.2,6.339l-.958,12.166a6.769,6.769,0,0,1-.562,2.616c-.408.785-1.466,1.669-2.419,1.29-1.263-.5-.5-1.112-.771-1.977A5.167,5.167,0,0,0,1258.678,285.653Z" fill="#cddefc"/>
              <path id="Path_13" data-name="Path 13" d="M1263.623,287.016a33.959,33.959,0,0,0-10.188-19.412c-1.8-1.7-3.852-3.051-5.755-4.619a10.911,10.911,0,0,1-4.018-5.848,45.234,45.234,0,0,1-.653-7.2,12.053,12.053,0,0,0-2.083-6.534c-1.408-1.838-3.455-2.982-5.384-4.188a11.763,11.763,0,0,1-5.184-5.591,10.336,10.336,0,0,1-.019-7.567c.3-.745-.908-1.068-1.2-.331a11.479,11.479,0,0,0,3.258,12.791c1.782,1.48,3.9,2.464,5.731,3.868a8.83,8.83,0,0,1,2.325,2.539,9.828,9.828,0,0,1,1.112,3.31c.406,2.381.261,4.818.549,7.213a11.672,11.672,0,0,0,2.7,6.526c1.654,1.891,3.813,3.23,5.76,4.786a32.609,32.609,0,0,1,11.851,20.586C1262.542,288.136,1263.742,287.8,1263.623,287.016Z" fill="#82acf8"/>
              <path id="Path_14" data-name="Path 14" d="M1283.486,285.653c2.1-.61,4.336-.544,6.5-.859s4.436-1.134,5.638-2.964c2.325-3.541-.506-8.7,1.581-12.383,1.267-2.238,4.019-3.222,6.588-3.34s5.125.445,7.7.452,5.357-.682,6.932-2.715c2.086-2.69,1.3-6.524.534-9.841s-1.22-7.307,1.241-9.658c2.023-1.934,5.167-1.9,7.792-2.865a12.363,12.363,0,0,0,6.752-6.663,20.134,20.134,0,0,0,1.441-9.539c-.532-7.89-4.524-15.637-11.087-20.05s-15.652-5.1-22.469-1.087-10.668,12.785-8.36,20.349c.829,2.715,2.36,5.629,1.18,8.211a6.811,6.811,0,0,1-4.47,3.3c-1.832.543-3.766.734-5.545,1.431a10.324,10.324,0,0,0-2.424,17.876,42.9,42.9,0,0,1,3.62,2.509,3.892,3.892,0,0,1,1.366,3.932c-.556,1.586-2.458,2.249-4.138,2.319s-3.42-.228-5.007.329a6.6,6.6,0,0,0-3.874,4.732,19.52,19.52,0,0,0-.195,6.339l.958,12.166a6.768,6.768,0,0,0,.563,2.616c.407.785,1.465,1.669,2.418,1.29,1.263-.5.5-1.112.771-1.977A5.167,5.167,0,0,1,1283.486,285.653Z" fill="#cddefc"/>
              <path id="Path_15" data-name="Path 15" d="M1278.541,287.016a33.975,33.975,0,0,1,10.188-19.412c1.8-1.7,3.852-3.051,5.755-4.619a10.91,10.91,0,0,0,4.018-5.848,45.121,45.121,0,0,0,.653-7.2,12.044,12.044,0,0,1,2.084-6.534c1.407-1.838,3.454-2.982,5.383-4.188a11.763,11.763,0,0,0,5.184-5.591,10.336,10.336,0,0,0,.019-7.567c-.295-.745.908-1.068,1.2-.331a11.479,11.479,0,0,1-3.258,12.791c-1.781,1.48-3.9,2.464-5.731,3.868a8.829,8.829,0,0,0-2.325,2.539,9.85,9.85,0,0,0-1.112,3.31c-.405,2.381-.261,4.818-.548,7.213a11.673,11.673,0,0,1-2.7,6.526c-1.653,1.891-3.813,3.23-5.76,4.786a32.6,32.6,0,0,0-11.85,20.586C1279.622,288.136,1278.422,287.8,1278.541,287.016Z" fill="#82acf8"/>
              <path id="Path_16" data-name="Path 16" d="M1268.1,282.1c-1.56-2.039-4.05-3.083-6.331-4.26s-4.622-2.778-5.341-5.242c-.963-3.3,1.337-6.6,3.6-9.18s4.8-5.555,4.4-8.968c-.321-2.72-2.486-4.87-4.823-6.3s-4.961-2.376-7.165-4c-6.183-4.554-7.389-14.519-2.472-20.417,1.818-2.179,4.243-3.759,6.266-5.75s3.707-4.673,3.375-7.491c-.545-4.622-5.763-6.847-9.135-10.054-4.31-4.1-5.8-10.419-5.705-16.366A36.983,36.983,0,0,1,1256.85,157.2a32.94,32.94,0,0,1,28.209-7.66,29.723,29.723,0,0,1,21.723,19.176c3.163,9.6.463,20.991-6.98,27.832-2.441,2.244-5.308,3.994-7.7,6.294s-4.338,5.382-4.171,8.694c.377,7.459,10.738,11.681,10.564,19.147-.105,4.493-4.06,7.827-7.741,10.4s-7.781,5.56-8.434,10.007c-.642,4.374,2.311,8.346,4.683,12.078s4.249,8.76,1.675,12.355c-1.7,2.381-4.773,3.234-7.382,4.562s-5.165,4.014-4.32,6.816a19.163,19.163,0,0,1,1,2.6c.351,2.363-2.658,4.075-4.961,3.442-1.845-.507-4.711-2.574-4.671-4.6.02-.983.915-1.921.882-3.08A5.615,5.615,0,0,0,1268.1,282.1Z" fill="#82acf8"/>
              <path id="Path_17" data-name="Path 17" d="M1276.332,182.718c.532-.6-.345-1.479-.88-.88-3.8,4.258-4.874,10.16-4.563,15.709.378,6.764,2.734,13.213,3.513,19.919.812,7-.032,14.055-1.19,20.968-1.121,6.694-2.531,13.35-3.087,20.124-.525,6.4-.3,12.989,1.69,19.145q.371,1.146.821,2.263c.294.735,1.5.414,1.2-.331a44.079,44.079,0,0,1-2.622-18.738c.338-6.614,1.621-13.115,2.766-19.622,1.2-6.82,2.274-13.742,1.924-20.689-.344-6.837-2.551-13.33-3.479-20.076-.747-5.428-.468-11.449,2.64-16.154A14.343,14.343,0,0,1,1276.332,182.718Z" fill="#cddefc"/>
            </g>
          </g>
          <line id="Line_1" data-name="Line 1" x1="0.568" y2="13.866" transform="translate(1298.896 311.404)" fill="none" stroke="#043179" stroke-linecap="round" stroke-linejoin="round" stroke-width="5"/>
          <path id="Path_18" data-name="Path 18" d="M1249.6,330.646s6.1,11.142,26.831,9.836" fill="none" stroke="#043179" stroke-linecap="round" stroke-linejoin="round" stroke-width="5"/>
          <path id="Path_19" data-name="Path 19" d="M1206.261,231.01a23.259,23.259,0,0,1-.281-5.732c.532-7.89,4.525-15.637,11.087-20.05s15.652-5.1,22.469-1.087c6.3,3.7,10.064,11.475,8.782,18.6" fill="none" stroke="#043179" stroke-linecap="round" stroke-linejoin="round" stroke-width="5"/>
          <path id="Path_20" data-name="Path 20" d="M1266.425,287.633a6.769,6.769,0,0,1-.562,2.616c-.408.785-1.466,1.669-2.419,1.29-1.263-.5-.5-1.112-.771-1.977a5.167,5.167,0,0,0-3.995-3.909c-2.1-.61-4.336-.544-6.5-.859s-4.437-1.134-5.639-2.964c-2.325-3.541.506-8.7-1.581-12.383-1.266-2.238-4.019-3.222-6.588-3.34s-5.124.445-7.7.452-5.357-.682-6.932-2.715c-2.085-2.69-1.3-6.524-.534-9.841s1.22-7.307-1.241-9.658c-2.023-1.934-5.166-1.9-7.792-2.865a10.8,10.8,0,0,1-3.3-1.964" fill="none" stroke="#043179" stroke-linecap="round" stroke-linejoin="round" stroke-width="5"/>
          <path id="Path_21" data-name="Path 21" d="M1284.886,259.844c.687,1.133,1.429,2.242,2.12,3.331,2.373,3.731,4.249,8.76,1.675,12.355-1.7,2.381-4.773,3.234-7.382,4.562s-5.165,4.014-4.32,6.816a19.163,19.163,0,0,1,1,2.6c.351,2.363-2.658,4.075-4.961,3.442-1.845-.507-4.711-2.574-4.671-4.6.02-.983.915-1.921.882-3.08a5.615,5.615,0,0,0-1.128-3.177c-1.56-2.039-4.05-3.083-6.331-4.26s-4.622-2.778-5.341-5.242c-.963-3.3,1.337-6.6,3.6-9.18s4.8-5.555,4.4-8.968c-.321-2.72-2.486-4.87-4.823-6.3s-4.961-2.376-7.165-4a14.231,14.231,0,0,1-5.476-10.519" fill="none" stroke="#043179" stroke-linecap="round" stroke-linejoin="round" stroke-width="5"/>
          <path id="Path_22" data-name="Path 22" d="M1253.255,202.715a31.535,31.535,0,0,1-2.773-2.274c-4.31-4.1-5.8-10.419-5.705-16.366A36.983,36.983,0,0,1,1256.85,157.2a32.94,32.94,0,0,1,28.209-7.66,29.723,29.723,0,0,1,21.723,19.176c3.163,9.6.463,20.991-6.98,27.832-2.441,2.244-5.308,3.994-7.7,6.294s-4.338,5.382-4.171,8.694a8.616,8.616,0,0,0,.458,2.348" fill="none" stroke="#043179" stroke-linecap="round" stroke-linejoin="round" stroke-width="5"/>
          <path id="Path_23" data-name="Path 23" d="M1310.128,201.648a19.388,19.388,0,0,0-7.5,2.493,18.061,18.061,0,0,0-5.355,4.876" fill="none" stroke="#043179" stroke-linecap="round" stroke-linejoin="round" stroke-width="5"/>
          <path id="Path_24" data-name="Path 24" d="M1278.72,291.539c1.263-.5.5-1.112.771-1.977a5.167,5.167,0,0,1,3.995-3.909c2.1-.61,4.336-.544,6.5-.859s4.436-1.134,5.638-2.964c2.325-3.541-.506-8.7,1.581-12.383,1.267-2.238,4.019-3.222,6.588-3.34s5.125.445,7.7.452,5.357-.682,6.932-2.715c2.086-2.69,1.3-6.524.534-9.841s-1.22-7.307,1.241-9.658c2.023-1.934,5.167-1.9,7.792-2.865a12.363,12.363,0,0,0,6.752-6.663,20.134,20.134,0,0,0,1.441-9.539c-.532-7.89-4.524-15.637-11.087-20.05a21.246,21.246,0,0,0-2.561-1.474" fill="none" stroke="#043179" stroke-linecap="round" stroke-linejoin="round" stroke-width="5"/>
        </g>
        <path id="Path_25" data-name="Path 25" d="M1426.488,535.66l286.6,164.807a13.734,13.734,0,0,0,13.65.025l13.8-7.872a13.734,13.734,0,0,0,.042-23.835L1453.981,503.978a13.73,13.73,0,0,0-13.649-.024l-13.8,7.872A13.732,13.732,0,0,0,1426.488,535.66Z" fill="#043179"/>
        <path id="Path_26" data-name="Path 26" d="M1074.253,730.846l304.286,174.975a14.581,14.581,0,0,0,14.492.025l14.653-8.357a14.581,14.581,0,0,0,.045-25.3L1103.443,697.209a14.581,14.581,0,0,0-14.492-.025l-14.653,8.357A14.581,14.581,0,0,0,1074.253,730.846Z" fill="#043179"/>
        <path id="Path_27" data-name="Path 27" d="M1228.994,670.592,1533.28,845.566a14.581,14.581,0,0,0,14.492.026l14.653-8.358a14.58,14.58,0,0,0,.044-25.3L1258.184,636.955a14.579,14.579,0,0,0-14.492-.026l-14.653,8.357A14.581,14.581,0,0,0,1228.994,670.592Z" fill="#043179"/>
        <g id="Group_21" data-name="Group 21">
          <g id="Group_11" data-name="Group 11">
            <g id="Group_10" data-name="Group 10" style="isolation: isolate">
              <g id="Group_7" data-name="Group 7">
                <path id="Path_28" data-name="Path 28" d="M1681.84,651.144l39.973-23.23.067-23.62-39.973,23.229Z" fill="#0541a1"/>
              </g>
              <g id="Group_8" data-name="Group 8">
                <path id="Path_29" data-name="Path 29" d="M1681.907,627.525l39.973-23.229L1566.524,514.6l-39.973,23.229Z" fill="#82acf8"/>
              </g>
              <g id="Group_9" data-name="Group 9">
                <path id="Path_30" data-name="Path 30" d="M1526.551,537.83l-.067,23.62,155.355,89.695.067-23.62Z" fill="#cddefc"/>
              </g>
            </g>
          </g>
          <g id="Group_16" data-name="Group 16">
            <g id="Group_15" data-name="Group 15" style="isolation: isolate">
              <g id="Group_12" data-name="Group 12">
                <path id="Path_31" data-name="Path 31" d="M1610.361,586.218l39.973-23.229.124-43.689-39.973,23.229Z" fill="#0541a1"/>
              </g>
              <g id="Group_13" data-name="Group 13">
                <path id="Path_32" data-name="Path 32" d="M1610.485,542.528l39.973-23.229-19.832-11.45-39.973,23.229Z" fill="#b0bfd9"/>
              </g>
              <g id="Group_14" data-name="Group 14">
                <path id="Path_33" data-name="Path 33" d="M1590.653,531.079l-.124,43.689,19.831,11.45.124-43.689Z" fill="#cddefc"/>
              </g>
            </g>
          </g>
          <g id="Group_19" data-name="Group 19">
            <g id="Group_18" data-name="Group 18" style="isolation: isolate">
              <path id="Path_34" data-name="Path 34" d="M1807.167,636.038l.783-276.005,39.973-23.23-.783,276c-.016,5.607-1.995,9.549-5.186,11.4l-39.972,23.229C1805.172,645.587,1807.152,641.645,1807.167,636.038Z" fill="#043179"/>
              <path id="Path_35" data-name="Path 35" d="M1357.657,79.739c-.3-.133-.589-.24-.881-.353-.423-.163-.841-.309-1.253-.432-.265-.08-.53-.158-.791-.221-.245-.06-.487-.111-.727-.156-.318-.06-.633-.11-.942-.145-.179-.02-.359-.041-.535-.053a11.207,11.207,0,0,0-1.14-.023c-.086,0-.174,0-.259,0a9.954,9.954,0,0,0-1.313.166c-.107.02-.21.048-.316.072a9.163,9.163,0,0,0-.977.282c-.1.035-.2.067-.3.106a8.432,8.432,0,0,0-1.167.554l39.973-23.23c.032-.019.064-.037.1-.055a8.459,8.459,0,0,1,.892-.437c.057-.024.118-.039.176-.062.1-.038.2-.07.3-.105.155-.055.305-.118.464-.164s.342-.079.512-.118c.106-.024.209-.052.316-.073.058-.011.112-.029.17-.039a9.858,9.858,0,0,1,1.073-.126c.024,0,.048,0,.07,0,.085-.005.174,0,.26,0,.28-.009.558-.02.847-.007.095,0,.2.023.293.029.176.012.354.033.534.054s.329.024.5.05c.145.022.3.067.445.1.24.045.481.1.726.155.132.032.26.048.394.084s.266.1.4.137c.412.124.829.269,1.252.432.15.058.292.09.442.153s.294.135.44.2.279.126.421.193c.538.254,1.08.528,1.63.846l430.52,248.56c.571.331,1.135.694,1.693,1.077.182.124.359.261.538.39.376.272.75.549,1.119.843.2.162.4.331.6.5.34.285.675.577,1.007.88.2.184.4.369.6.558.124.119.252.228.374.349s.252.274.381.406q.6.613,1.185,1.263c.123.137.255.261.376.4.1.118.2.246.3.366.235.276.464.559.693.843.148.185.305.361.451.549.12.156.233.319.351.477q.25.332.494.669c.111.155.229.3.339.46.186.265.361.539.541.808.116.173.234.343.347.518.046.071.1.14.142.212q.476.742.92,1.506c.02.034.037.069.057.1.059.1.113.2.171.306.206.362.412.723.607,1.09.09.169.172.341.26.512s.182.356.271.535c.078.156.161.31.236.466.2.415.388.834.574,1.253.033.076.07.151.1.227.009.022.02.043.029.065q.345.793.653,1.6c.038.1.069.2.105.292.073.194.139.389.209.583.1.268.2.535.289.8.068.207.124.415.189.622.077.245.153.488.224.733.044.152.1.305.139.457.076.272.132.542.2.813.076.3.154.6.222.9.023.107.056.215.079.322.046.22.07.437.112.657.09.472.175.942.243,1.41.019.132.051.265.068.4.038.3.057.589.086.884.021.209.046.418.062.626.049.661.081,1.318.079,1.964l-39.973,23.23c0-.647-.029-1.3-.079-1.964-.015-.208-.041-.418-.061-.627q-.063-.636-.155-1.279c-.067-.469-.152-.941-.243-1.414-.062-.324-.118-.648-.191-.973-.067-.3-.146-.606-.222-.909-.107-.423-.216-.846-.339-1.269-.071-.244-.147-.488-.223-.731q-.225-.715-.479-1.429c-.069-.193-.136-.387-.208-.58-.246-.654-.506-1.307-.788-1.954-.033-.076-.07-.151-.1-.226-.257-.58-.529-1.154-.812-1.724-.088-.177-.177-.352-.268-.527q-.416-.81-.866-1.6c-.059-.1-.115-.209-.174-.312-.358-.617-.733-1.223-1.119-1.821-.112-.173-.23-.343-.345-.515q-.43-.644-.881-1.268c-.163-.226-.327-.449-.495-.671-.262-.349-.532-.689-.8-1.028-.227-.283-.455-.564-.689-.839s-.451-.515-.679-.77q-.581-.646-1.183-1.26c-.25-.254-.5-.51-.756-.755-.2-.19-.4-.375-.6-.558-.331-.3-.667-.6-1.006-.88-.2-.169-.4-.339-.6-.5-.368-.293-.742-.571-1.118-.842-.18-.13-.357-.266-.538-.391-.558-.383-1.122-.746-1.694-1.076L1359.708,80.777c-.55-.318-1.091-.591-1.629-.846Q1357.867,79.832,1357.657,79.739Z" fill="#82acf8"/>
              <g id="Group_17" data-name="Group 17">
                <path id="Path_36" data-name="Path 36" d="M1359.708,80.777c-9.825-5.673-17.805-1.111-17.837,10.165l-.782,276c-.032,11.29,7.9,25.022,17.721,30.7L1789.33,646.2c9.813,5.665,17.806,1.125,17.838-10.165l.782-276.005c.032-11.276-7.908-25.029-17.722-30.695Z" fill="#cddefc"/>
              </g>
            </g>
          </g>
          <g id="Group_20" data-name="Group 20">
            <path id="Path_37" data-name="Path 37" d="M1794.535,352.282l-.78,276c-.01,2.78-1.97,3.89-4.38,2.51l-430.52-248.56a9.607,9.607,0,0,1-4.35-7.55l.78-276c.01-2.76,1.97-3.88,4.39-2.49l430.52,248.56A9.6,9.6,0,0,1,1794.535,352.282Z" fill="#fff"/>
          </g>
        </g>
        <ellipse id="Ellipse_2" data-name="Ellipse 2" cx="94.165" cy="46.354" rx="94.165" ry="46.354" transform="translate(908.576 873.863)" fill="#043179"/>
        <ellipse id="Ellipse_3" data-name="Ellipse 3" cx="76.196" cy="37.508" rx="76.196" ry="37.508" transform="translate(1135.368 950.976)" fill="#043179"/>
        <g id="Group_22" data-name="Group 22">
          <path id="Path_38" data-name="Path 38" d="M1568.1,448.326a12.058,12.058,0,0,1-5.47-9.474l.053-18.653c-2.864-3.749-4.763-8.527-4.751-12.721.018-6.515,4.631-9.144,10.3-5.871s10.256,11.214,10.237,17.728c-.012,4.2-1.935,6.766-4.81,7.2l-.053,18.652c-.01,3.484-2.475,4.888-5.506,3.138m-12.257-55.043a5.887,5.887,0,0,1-2.046-2.157c-1.129-1.958-1.123-4.066.013-4.714,3.869-2.208,9.007-1.687,14.461,1.462s10.582,8.555,14.426,15.216c1.128,1.955,1.122,4.066-.016,4.712a2.064,2.064,0,0,1-2.051-.208,5.905,5.905,0,0,1-2.051-2.164,29.653,29.653,0,0,0-10.327-10.891c-3.906-2.256-7.584-2.627-10.353-1.048a2.062,2.062,0,0,1-2.056-.208m-8.059-13.959a5.886,5.886,0,0,1-2.048-2.16c-1.128-1.954-1.122-4.066.013-4.713,6.038-3.441,14.049-2.631,22.56,2.282s16.5,13.344,22.5,23.734c1.128,1.954,1.122,4.066-.013,4.713a2.065,2.065,0,0,1-2.053-.206,5.913,5.913,0,0,1-2.05-2.162c-4.905-8.5-11.441-15.391-18.4-19.411s-13.514-4.682-18.452-1.868a2.068,2.068,0,0,1-2.054-.209m105.723,15.363L1483.274,296.4c-2.6-1.5-4.72-.3-4.728,2.694l-.326,115.012a10.357,10.357,0,0,0,4.7,8.126l170.231,98.283c2.605,1.5,4.72.3,4.728-2.685l.017-6.075L1478.237,408.034l.018-6.338,179.656,103.725.244-85.977L1478.5,315.719l.018-6.335,179.656,103.725.029-10.286a10.343,10.343,0,0,0-4.7-8.136" fill="#cddefc"/>
          <path id="Path_39" data-name="Path 39" d="M1568.23,401.607c-5.669-3.273-10.282-.644-10.3,5.871-.012,4.194,1.887,8.972,4.751,12.721l-.053,18.653a12.058,12.058,0,0,0,5.47,9.474c3.031,1.75,5.5.346,5.506-3.138l.053-18.652c2.875-.435,4.8-3.006,4.81-7.2.019-6.514-4.565-14.453-10.237-17.728" fill="#02193d"/>
          <path id="Path_40" data-name="Path 40" d="M1582.945,248.917l-28.514-16.462c-32.924-19.009-59.8-3.693-59.9,34.137l-.1,36.25,29.464,17.011.1-36.25c.055-19.161,13.665-26.921,30.344-17.292l28.513,16.462c16.675,9.628,30.2,33.053,30.143,52.214l-.1,36.251,29.465,17.011.1-36.25c.108-37.83-26.59-84.075-59.511-103.082" fill="#82acf8"/>
          <path id="Path_41" data-name="Path 41" d="M1658.173,413.109,1478.516,309.384l-.018,6.335,179.657,103.725.018-6.335" fill="#82acf8"/>
          <path id="Path_42" data-name="Path 42" d="M1568.269,387.874c-5.454-3.149-10.592-3.67-14.461-1.462-1.136.648-1.142,2.756-.013,4.714a5.887,5.887,0,0,0,2.046,2.157,2.062,2.062,0,0,0,2.056.208c2.769-1.579,6.447-1.208,10.353,1.048a29.653,29.653,0,0,1,10.327,10.891,5.905,5.905,0,0,0,2.051,2.164,2.064,2.064,0,0,0,2.051.208c1.138-.646,1.144-2.757.016-4.712-3.844-6.661-8.966-12.064-14.426-15.216" fill="#02193d"/>
          <path id="Path_43" data-name="Path 43" d="M1568.307,374.733c-8.511-4.913-16.522-5.723-22.56-2.282-1.135.647-1.141,2.759-.013,4.713a5.886,5.886,0,0,0,2.048,2.16,2.068,2.068,0,0,0,2.054.209c4.938-2.814,11.491-2.15,18.452,1.868s13.5,10.914,18.4,19.411a5.913,5.913,0,0,0,2.05,2.162,2.065,2.065,0,0,0,2.053.206c1.135-.647,1.141-2.759.013-4.713-6-10.39-13.991-18.82-22.5-23.734" fill="#02193d"/>
          <path id="Path_44" data-name="Path 44" d="M1657.911,505.421,1478.255,401.7l-.018,6.338,179.657,103.725.018-6.338" fill="#82acf8"/>
        </g>
        <g id="Group_38" data-name="Group 38">
          <g id="Group_29" data-name="Group 29">
            <g id="Group_28" data-name="Group 28" style="isolation: isolate">
              <g id="Group_23" data-name="Group 23">
                <path id="Path_45" data-name="Path 45" d="M1263.837,341.2l17.62-10.24,27.169,66.626-17.62,10.24Z" fill="#82acf8"/>
              </g>
              <g id="Group_24" data-name="Group 24">
                <path id="Path_46" data-name="Path 46" d="M1141.449,270.544l17.62-10.24,122.388,70.66-17.62,10.24Z" fill="#cddefc"/>
              </g>
              <g id="Group_25" data-name="Group 25">
                <path id="Path_47" data-name="Path 47" d="M1509.789,534.145l17.62-10.24-.772,272.241-17.62,10.24Z" fill="#cddefc"/>
              </g>
              <g id="Group_26" data-name="Group 26">
                <path id="Path_48" data-name="Path 48" d="M1291.006,407.83l17.62-10.24L1527.409,523.9l-17.62,10.24Z" fill="#cddefc"/>
              </g>
              <g id="Group_27" data-name="Group 27">
                <path id="Path_49" data-name="Path 49" d="M1263.837,341.2l27.169,66.626,218.783,126.315-.772,272.241L1140.533,593.641,1141.3,321.4l.144-50.857Z" fill="#043179"/>
              </g>
            </g>
          </g>
          <path id="Path_50" data-name="Path 50" d="M1053.019,339.371V238.241L1477.1,484.134V838.689L1052.108,586.234Z" fill="#f5f8fe"/>
          <path id="Path_51" data-name="Path 51" d="M1029.409,339.371V238.241l424.076,245.893V838.689L1028.5,586.234Z" fill="#ebf2fe"/>
          <path id="Path_52" data-name="Path 52" d="M1086.64,358.892v9.343l354.392,204.608V562.285Z" fill="#82acf8"/>
          <path id="Path_53" data-name="Path 53" d="M1086.64,401.651v9.343L1441.033,615.6V605.044Z" fill="#82acf8"/>
          <path id="Path_54" data-name="Path 54" d="M1086.64,444.411v9.343l354.392,204.608V647.8Z" fill="#82acf8"/>
          <path id="Path_55" data-name="Path 55" d="M1086.64,487.17v9.343l354.392,204.608V690.563Z" fill="#82acf8"/>
          <path id="Path_56" data-name="Path 56" d="M1086.64,529.93v9.343l354.392,204.608V733.323Z" fill="#82acf8"/>
          <path id="Path_57" data-name="Path 57" d="M1006.953,346.456V245.327L1431.03,491.22V845.774L1006.042,593.32Z" fill="#e1ebfd"/>
          <path id="Path_58" data-name="Path 58" d="M1041.34,310.834v9.343l354.392,204.608V514.227Z" fill="#82acf8"/>
          <path id="Path_59" data-name="Path 59" d="M1041.34,365.5v9.343l354.392,204.608V568.889Z" fill="#82acf8"/>
          <g id="Group_36" data-name="Group 36">
            <g id="Group_35" data-name="Group 35" style="isolation: isolate">
              <g id="Group_30" data-name="Group 30">
                <path id="Path_60" data-name="Path 60" d="M1134.538,408.681l17.62-10.24,27.169,66.626-17.62,10.24Z" fill="#043179"/>
              </g>
              <g id="Group_31" data-name="Group 31">
                <path id="Path_61" data-name="Path 61" d="M1012.151,338.021l17.62-10.24,122.388,70.66-17.62,10.24Z" fill="#82acf8"/>
              </g>
              <g id="Group_32" data-name="Group 32">
                <path id="Path_62" data-name="Path 62" d="M1380.491,601.622l17.62-10.24-.772,272.241-17.62,10.24Z" fill="#cddefc"/>
              </g>
              <g id="Group_33" data-name="Group 33">
                <path id="Path_63" data-name="Path 63" d="M1161.707,475.307l17.62-10.24L1398.11,591.382l-17.62,10.24Z" fill="#82acf8"/>
              </g>
              <g id="Group_34" data-name="Group 34">
                <path id="Path_64" data-name="Path 64" d="M1011.518,561.278l.489-172.4.144-50.857,122.388,70.66,27.169,66.626,218.783,126.315-.772,272.241L1011.235,661.119l.283-99.841" fill="#cddefc"/>
              </g>
            </g>
          </g>
          <g id="Group_37" data-name="Group 37">
            <path id="Path_65" data-name="Path 65" d="M1171.02,629.844l35.635-42.061c2-2.36,5.329-2.35,8.717-.394a19.5,19.5,0,0,1,5.662,5.215c4.8,6.369,6.131,14.544,2.989,18.264l-42.182,49.771c-1.645,1.954-4.3,2.358-7.279,1.109a12.047,12.047,0,0,1-1.433-.71,20.6,20.6,0,0,1-6.8-6.857l-29.758-47c-4.319-6.825-4.763-14.631-.986-17.436,2.054-1.533,4.944-1.256,7.847.42a20.627,20.627,0,0,1,6.81,6.865l20.779,32.814m8.595-115.729c-48.782-28.164-88.449-5.558-88.608,50.5s39.251,124.315,88.032,152.478,88.45,5.559,88.609-50.494-39.251-124.316-88.033-152.48" fill="#82acf8"/>
            <path id="Path_66" data-name="Path 66" d="M1215.372,587.389c-3.388-1.956-6.714-1.966-8.717.394l-35.635,42.061-20.779-32.814a20.627,20.627,0,0,0-6.81-6.865c-2.9-1.676-5.793-1.953-7.847-.42-3.777,2.8-3.333,10.611.986,17.436l29.758,47a20.6,20.6,0,0,0,6.8,6.857,12.047,12.047,0,0,0,1.433.71c2.98,1.249,5.634.845,7.279-1.109l42.182-49.771c3.142-3.72,1.81-11.895-2.989-18.264a19.5,19.5,0,0,0-5.662-5.215" fill="#043179"/>
          </g>
        </g>
        <line id="Line_2" data-name="Line 2" y1="56.053" x2="95.554" transform="translate(1453.152 407.83)" fill="none" stroke="#043179" stroke-linecap="round" stroke-miterlimit="10" stroke-width="5" stroke-dasharray="12"/>
        <line id="Line_3" data-name="Line 3" y1="111.025" x2="189.265" transform="translate(975.84 632.855)" fill="none" stroke="#043179" stroke-linecap="round" stroke-miterlimit="10" stroke-width="5" stroke-dasharray="12"/>
        <g id="Group_82" data-name="Group 82">
          <g id="Group_81" data-name="Group 81" style="isolation: isolate">
            <g id="Group_41" data-name="Group 41" style="isolation: isolate">
              <g id="Group_40" data-name="Group 40" clip-path="url(#clip-path-2)">
                <g id="Group_39" data-name="Group 39" style="isolation: isolate">
                  <path id="Path_67" data-name="Path 67" d="M975.84,871.969l19.281-11.205c-2.991-3.973-6.5-8.756-10.346-14.244l-19.282,11.2c3.85,5.488,7.356,10.271,10.347,14.244" fill="#607fb8"/>
                  <path id="Path_68" data-name="Path 68" d="M965.493,857.725l19.282-11.2c-4.109-5.857-8.61-12.516-13.3-19.846L952.2,837.879c4.685,7.33,9.186,13.989,13.295,19.846" fill="#5e7cb3"/>
                  <path id="Path_69" data-name="Path 69" d="M952.2,837.879l19.281-11.205c-3.709-5.8-7.534-12.025-11.372-18.6l-19.281,11.205c3.838,6.579,7.663,12.8,11.372,18.6" fill="#5b78ae"/>
                  <path id="Path_70" data-name="Path 70" d="M940.826,819.275l19.281-11.205c-3.192-5.473-6.394-11.193-9.546-17.121l-19.282,11.205c3.152,5.929,6.354,11.648,9.547,17.121" fill="#5875a9"/>
                  <path id="Path_71" data-name="Path 71" d="M931.279,802.154l19.282-11.205q-4.1-7.707-8.044-15.862l-19.281,11.206c2.617,5.428,5.312,10.723,8.043,15.861" fill="#5672a4"/>
                  <path id="Path_72" data-name="Path 72" d="M923.236,786.293l19.281-11.206q-3.528-7.314-6.844-14.934l-19.282,11.2q3.3,7.611,6.845,14.935" fill="#536e9f"/>
                  <path id="Path_73" data-name="Path 73" d="M916.391,771.358l19.282-11.2q-3.079-7.1-5.9-14.413l-19.281,11.205q2.811,7.309,5.9,14.413" fill="#516b9a"/>
                  <path id="Path_74" data-name="Path 74" d="M910.489,756.945,929.77,745.74q-2.693-7-5.089-14.161L905.4,742.785q2.387,7.155,5.09,14.16" fill="#4e6795"/>
                  <path id="Path_75" data-name="Path 75" d="M905.4,742.785l19.282-11.206q-2.387-7.152-4.417-14.428l-19.282,11.205q2.022,7.27,4.417,14.429" fill="#4b6490"/>
                  <path id="Path_76" data-name="Path 76" d="M900.982,728.356l19.282-11.205q-1.257-4.52-2.355-9.073l-19.282,11.205q1.1,4.552,2.355,9.073" fill="#49608b"/>
                </g>
              </g>
            </g>
            <g id="Group_44" data-name="Group 44" style="isolation: isolate">
              <g id="Group_43" data-name="Group 43" clip-path="url(#clip-path-3)">
                <g id="Group_42" data-name="Group 42" style="isolation: isolate">
                  <path id="Path_78" data-name="Path 78" d="M975.93,839.926l19.282-11.205c-2.865-4.175-5.9-8.736-9.03-13.63L966.9,826.3c3.128,4.894,6.164,9.455,9.029,13.63" fill="#b8b8b8"/>
                  <path id="Path_79" data-name="Path 79" d="M966.9,826.3l19.281-11.205c-3.291-5.149-6.682-10.667-10.081-16.492L956.82,809.8c3.4,5.825,6.79,11.343,10.081,16.492" fill="#b3b3b3"/>
                  <path id="Path_80" data-name="Path 80" d="M956.82,809.8,976.1,798.6c-2.82-4.834-5.645-9.879-8.421-15.1L948.4,794.7c2.776,5.222,5.6,10.267,8.421,15.1" fill="#adadad"/>
                  <path id="Path_81" data-name="Path 81" d="M948.4,794.7,967.68,783.5c-2.387-4.49-4.738-9.11-7.018-13.838L941.38,780.865q3.422,7.092,7.019,13.838" fill="#a8a8a8"/>
                  <path id="Path_82" data-name="Path 82" d="M941.38,780.865l19.282-11.205q-3.064-6.352-5.934-12.947l-19.281,11.205q2.857,6.588,5.933,12.947" fill="#a3a3a3"/>
                  <path id="Path_83" data-name="Path 83" d="M935.447,767.918l19.281-11.205q-2.642-6.09-5.056-12.347l-19.282,11.2q2.406,6.252,5.057,12.347" fill="#9e9e9e"/>
                  <path id="Path_84" data-name="Path 84" d="M930.39,755.571l19.282-11.2q-2.3-5.975-4.338-12.066l-19.281,11.205q2.03,6.087,4.337,12.066" fill="#999"/>
                  <path id="Path_85" data-name="Path 85" d="M926.053,743.505,945.334,732.3q-2.017-6.049-3.73-12.183l-19.281,11.205q1.7,6.129,3.73,12.183" fill="#949494"/>
                  <path id="Path_86" data-name="Path 86" d="M922.323,731.322,941.6,720.117q-1.056-3.8-1.978-7.622L920.344,723.7q.921,3.82,1.979,7.622" fill="#8f8f8f"/>
                </g>
              </g>
            </g>
            <g id="Group_47" data-name="Group 47" style="isolation: isolate">
              <g id="Group_46" data-name="Group 46" clip-path="url(#clip-path-4)">
                <g id="Group_45" data-name="Group 45" style="isolation: isolate">
                  <path id="Path_88" data-name="Path 88" d="M995.79,831.569l19.282-11.2a93.028,93.028,0,0,1-9.749,4.752l-19.282,11.2a92.81,92.81,0,0,0,9.749-4.752" fill="#a3a3a3"/>
                  <path id="Path_89" data-name="Path 89" d="M986.041,836.321l19.282-11.2a101.5,101.5,0,0,1-10.111,3.6L975.93,839.926a101.065,101.065,0,0,0,10.111-3.605" fill="#a8a8a8"/>
                </g>
              </g>
            </g>
            <g id="Group_50" data-name="Group 50" style="isolation: isolate">
              <g id="Group_49" data-name="Group 49" clip-path="url(#clip-path-5)">
                <g id="Group_48" data-name="Group 48" style="isolation: isolate">
                  <path id="Path_91" data-name="Path 91" d="M1012.944,858.727l19.282-11.205q-.579.336-1.157.662l-19.281,11.2q.577-.325,1.156-.662" fill="#516b9a"/>
                  <path id="Path_92" data-name="Path 92" d="M1011.788,859.389l19.281-11.2a104.788,104.788,0,0,1-10.99,5.359l-19.282,11.2a104.6,104.6,0,0,0,10.991-5.359" fill="#536e9f"/>
                  <path id="Path_93" data-name="Path 93" d="M1000.8,864.748l19.282-11.2a113.585,113.585,0,0,1-12.124,4.269l-19.282,11.205a113.358,113.358,0,0,0,12.124-4.269" fill="#5672a4"/>
                  <path id="Path_94" data-name="Path 94" d="M988.673,869.017l19.282-11.205a116.783,116.783,0,0,1-12.523,2.9l-19.282,11.2a116.766,116.766,0,0,0,12.523-2.9" fill="#5875a9"/>
                  <path id="Path_95" data-name="Path 95" d="M976.15,871.915l19.282-11.2-.311.054L975.84,871.969l.31-.054" fill="#5b78ae"/>
                </g>
              </g>
            </g>
            <g id="Group_53" data-name="Group 53" style="isolation: isolate">
              <g id="Group_52" data-name="Group 52" clip-path="url(#clip-path-6)">
                <g id="Group_51" data-name="Group 51" style="isolation: isolate">
                  <path id="Path_97" data-name="Path 97" d="M996.827,830.976l19.281-11.205q-.517.3-1.036.593l-19.282,11.2q.519-.291,1.037-.593" fill="#9e9e9e"/>
                  <path id="Path_98" data-name="Path 98" d="M995.79,831.569l19.282-11.2a93.028,93.028,0,0,1-9.749,4.752l-19.282,11.2a92.81,92.81,0,0,0,9.749-4.752" fill="#a3a3a3"/>
                </g>
              </g>
            </g>
            <g id="Group_56" data-name="Group 56" style="isolation: isolate">
              <g id="Group_55" data-name="Group 55" clip-path="url(#clip-path-7)">
                <g id="Group_54" data-name="Group 54" style="isolation: isolate">
                  <path id="Path_100" data-name="Path 100" d="M898.627,719.283l19.282-11.205q-2.314-9.612-4.192-18.426l-19.282,11.205q1.884,8.817,4.192,18.426" fill="#49608b"/>
                  <path id="Path_101" data-name="Path 101" d="M894.435,700.857l19.282-11.205c-3.7-17.318-6.214-32.358-7.888-45.26L886.548,655.6c1.674,12.9,4.187,27.941,7.887,45.259" fill="#465d86"/>
                  <path id="Path_102" data-name="Path 102" d="M886.548,655.6l19.281-11.206a320.29,320.29,0,0,1-3.034-45.045l-19.282,11.205a320.336,320.336,0,0,0,3.035,45.046" fill="#445981"/>
                </g>
              </g>
            </g>
            <g id="Group_59" data-name="Group 59" style="isolation: isolate">
              <g id="Group_58" data-name="Group 58" clip-path="url(#clip-path-8)">
                <g id="Group_57" data-name="Group 57" style="isolation: isolate">
                  <path id="Path_104" data-name="Path 104" d="M920.344,723.7l19.282-11.205q-2.184-9.062-3.944-17.329l-19.281,11.2q1.767,8.27,3.943,17.329" fill="#8f8f8f"/>
                  <path id="Path_105" data-name="Path 105" d="M916.4,706.371l19.281-11.2c-3.466-16.222-5.793-30.185-7.331-42.035l-19.282,11.205c1.538,11.85,3.865,25.814,7.332,42.035" fill="#8a8a8a"/>
                  <path id="Path_106" data-name="Path 106" d="M909.069,664.336l19.282-11.205c-.853-6.566-1.463-12.483-1.89-17.776L907.179,646.56c.428,5.293,1.038,11.21,1.89,17.776" fill="#858585"/>
                </g>
              </g>
            </g>
            <g id="Group_62" data-name="Group 62" style="isolation: isolate">
              <g id="Group_61" data-name="Group 61" clip-path="url(#clip-path-9)">
                <g id="Group_60" data-name="Group 60" style="isolation: isolate">
                  <path id="Path_108" data-name="Path 108" d="M976.438,660.825l19.282-11.206q-1.276-.036-2.561-.092l-19.281,11.205q1.284.057,2.56.093" fill="#5e7cb3"/>
                  <path id="Path_109" data-name="Path 109" d="M973.878,660.732l19.281-11.205a185.219,185.219,0,0,1-19.842-1.977l-19.282,11.205a185.266,185.266,0,0,0,19.843,1.977" fill="#607fb8"/>
                  <path id="Path_110" data-name="Path 110" d="M954.035,658.755l19.282-11.205a229.533,229.533,0,0,1-25.177-5.363l-19.282,11.205a229.374,229.374,0,0,0,25.177,5.363" fill="#6383bc"/>
                  <path id="Path_111" data-name="Path 111" d="M928.858,653.392l19.282-11.205q-10.278-2.778-20.98-6.579l-.7-.253L907.179,646.56l.7.253q10.7,3.8,20.98,6.579" fill="#6586c1"/>
                </g>
              </g>
            </g>
            <g id="Group_65" data-name="Group 65" style="isolation: isolate">
              <g id="Group_64" data-name="Group 64" clip-path="url(#clip-path-10)">
                <g id="Group_63" data-name="Group 63" style="isolation: isolate">
                  <path id="Path_113" data-name="Path 113" d="M976.522,631.411,995.8,620.205c-4.024.162-8.054.142-12.067-.034l-19.281,11.2c4.013.176,8.042.2,12.067.035" fill="#b8b8b8"/>
                  <path id="Path_114" data-name="Path 114" d="M964.455,631.376l19.281-11.2a171.324,171.324,0,0,1-18.306-1.83l-19.282,11.205a171.075,171.075,0,0,0,18.307,1.83" fill="#bdbdbd"/>
                  <path id="Path_115" data-name="Path 115" d="M946.148,629.546l19.282-11.205a214.051,214.051,0,0,1-23.452-5L922.7,624.546a213.981,213.981,0,0,0,23.451,5" fill="#c2c2c2"/>
                  <path id="Path_116" data-name="Path 116" d="M922.7,624.546l19.281-11.205A271.14,271.14,0,0,1,909.456,602.2l-19.282,11.2A270.926,270.926,0,0,0,922.7,624.546" fill="#c7c7c7"/>
                  <path id="Path_117" data-name="Path 117" d="M890.174,613.4l19.282-11.2q-3.512-1.452-6.661-2.85l-19.282,11.205q3.144,1.391,6.661,2.85" fill="#ccc"/>
                </g>
              </g>
            </g>
            <g id="Group_68" data-name="Group 68" style="isolation: isolate">
              <g id="Group_67" data-name="Group 67" clip-path="url(#clip-path-11)">
                <g id="Group_66" data-name="Group 66" style="isolation: isolate">
                  <path id="Path_119" data-name="Path 119" d="M996.827,830.976l19.281-11.205a77.256,77.256,0,0,0,35.157-42.821,270.263,270.263,0,0,0,13.559-61.71l-19.281,11.205a270.316,270.316,0,0,1-13.559,61.71,77.264,77.264,0,0,1-35.157,42.821" fill="#445981"/>
                </g>
              </g>
            </g>
            <g id="Group_71" data-name="Group 71" style="isolation: isolate">
              <g id="Group_70" data-name="Group 70" clip-path="url(#clip-path-12)">
                <g id="Group_69" data-name="Group 69" style="isolation: isolate">
                  <path id="Path_121" data-name="Path 121" d="M1045.543,726.445l19.281-11.205c-.235-.187-.462-.368-.7-.554a550.64,550.64,0,0,1-43.211-38.461l-19.282,11.205a550.83,550.83,0,0,0,43.212,38.461c.235.186.462.368.7.554" fill="#688ac6"/>
                  <path id="Path_122" data-name="Path 122" d="M1001.633,687.43l19.282-11.205q-13.018-12.87-25.2-26.606l-19.282,11.206q12.168,13.725,25.2,26.6" fill="#6586c1"/>
                </g>
              </g>
            </g>
            <g id="Group_72" data-name="Group 72">
              <path id="Path_124" data-name="Path 124" d="M976.438,660.825c-21.019-.6-43.977-5.277-68.56-14.012l-.7-.253c1.462,18.093,5.055,43.478,13.165,77.14,10.929,45.381,36.908,89.008,55.586,116.226,18.763-5.6,44.9-19.137,56.054-51.771a270.316,270.316,0,0,0,13.559-61.71c-.236-.186-.463-.368-.7-.554A553.421,553.421,0,0,1,976.438,660.825Z" fill="#82acf8"/>
            </g>
            <path id="Path_125" data-name="Path 125" d="M912.177,594.738q-1.752-.513-3.468-1.043l-.185-.059q-1.7-.528-3.352-1.073l-.374-.122q-1.632-.539-3.219-1.09l-.538-.187q-1.548-.54-3.051-1.087l-.543-.2c-1.011-.37-2.009-.742-2.987-1.115l-.336-.13q-1.488-.568-2.923-1.139l-.15-.059c-.966-.385-1.909-.768-2.836-1.15-.083-.035-.172-.069-.255-.1l-.179-.075q-1.179-.489-2.315-.972l-.469-.2q-1.051-.45-2.063-.894l-.25-.109c-.727-.32-1.435-.636-2.129-.949l-.483-.219c-.685-.311-1.358-.618-2.008-.92l-.106-.05c-.629-.292-1.237-.578-1.832-.861l-.416-.2c-.6-.285-1.179-.565-1.74-.838l-.3-.146q-.762-.372-1.477-.728l-.273-.136q-.777-.387-1.495-.753l-.318-.162c-.451-.23-.888-.455-1.3-.67l-.086-.044c-.439-.228-.85-.444-1.245-.653l-.262-.139c-.376-.2-.736-.392-1.069-.571l-.136-.074c-.294-.158-.568-.308-.826-.449l-.217-.119c-.265-.145-.51-.281-.733-.4l-.185-.1-.5-.282-.1-.059-.439-.249-.134-.077-.169-.1-.06-.034,19.282-11.2.253.146.1.056.459.261.075.042.538.3.16.089c.228.127.48.266.751.415l.2.107q.395.216.844.459l.13.07c.335.181.7.374,1.075.575l.254.134c.394.209.8.424,1.242.652l.107.055c.41.213.844.436,1.291.664l.312.159q.717.364,1.491.751l.289.144q.712.354,1.473.726l.288.141c.564.274,1.149.556,1.749.842l.409.195c.6.282,1.2.569,1.833.862l.108.05c.648.3,1.319.607,2,.917l.495.224c.692.312,1.4.626,2.12.945l.261.114c.671.3,1.358.592,2.056.891l.468.2q1.134.483,2.312.971l.443.183c.925.381,1.864.763,2.827,1.147l.161.063q1.43.569,2.915,1.136l.336.13c.978.373,1.976.745,2.987,1.115l.544.2q1.5.546,3.047,1.086l.545.189q1.588.549,3.218,1.09c.122.04.246.079.368.12q1.659.544,3.36,1.075l.179.057c1.142.355,2.3.7,3.469,1.044l.536.157q1.693.492,3.423.962l.57.154q2.256.607,4.563,1.174l.441.109q2.449.594,4.95,1.135l.117.026q2.553.549,5.154,1.032l.343.062q2.451.45,4.938.835l.643.1q1.811.273,3.636.511c.109.014.219.026.328.039q1.749.221,3.511.4c.2.021.4.043.595.063q1.811.181,3.633.317c.247.019.495.037.742.054,1.233.087,2.468.163,3.707.218.177.008.355.013.533.02q1.3.054,2.613.083.453.011.906.018,1.335.021,2.672.015c.167,0,.334,0,.5,0q1.563-.012,3.127-.065c.271-.009.542-.021.813-.032q1.224-.048,2.448-.12c.272-.016.545-.031.817-.049q1.833-.12,3.664-.3c.234-.022.468-.048.7-.072,1.269-.131,2.538-.277,3.8-.451l-19.282,11.2c-1.267.175-2.536.32-3.8.451-.234.024-.468.05-.7.072q-1.831.179-3.664.3c-.092.006-.183.016-.275.022-.18.011-.361.016-.541.026q-1.224.072-2.449.12c-.271.011-.541.023-.812.032q-1.565.051-3.127.066c-.168,0-.335,0-.5,0q-1.336,0-2.671-.016-.453-.008-.906-.018-1.309-.028-2.614-.082c-.14-.006-.28-.008-.42-.014-.038,0-.075-.005-.113-.006q-1.857-.084-3.706-.219l-.743-.053q-1.823-.138-3.633-.318c-.2-.02-.4-.042-.6-.063q-1.761-.181-3.51-.4l-.329-.04c-1.218-.156-2.429-.329-3.636-.511-.129-.019-.26-.035-.389-.054-.085-.013-.168-.03-.253-.043q-2.488-.384-4.94-.835l-.341-.062q-2.6-.483-5.155-1.032l-.115-.025q-2.5-.54-4.952-1.136l-.439-.109q-2.309-.566-4.566-1.174l-.25-.064-.316-.089q-1.73-.471-3.425-.963Z" fill="#cddefc"/>
            <g id="Group_75" data-name="Group 75" style="isolation: isolate">
              <g id="Group_74" data-name="Group 74" clip-path="url(#clip-path-13)">
                <g id="Group_73" data-name="Group 73" style="isolation: isolate">
                  <path id="Path_126" data-name="Path 126" d="M1012.944,858.727l19.281-11.205c16.062-9.334,32.094-24.686,40.72-49.934,13.487-39.5,15.915-71.749,15.759-90.887l-19.282,11.205c.156,19.138-2.271,51.391-15.758,90.887-8.627,25.248-24.659,40.6-40.72,49.934" fill="#858585"/>
                </g>
              </g>
            </g>
            <g id="Group_76" data-name="Group 76">
              <path id="Path_128" data-name="Path 128" d="M976.522,631.411a505.591,505.591,0,0,0,92.9,86.495c.156,19.138-2.271,51.391-15.758,90.887-16.125,47.192-58.124,59.815-77.824,63.176-19.626-26.067-61.408-87.059-77.213-152.686-13.124-54.5-15.369-89.619-15.114-108.731C905.312,620.2,941.1,632.832,976.522,631.411ZM920.344,723.7c10.929,45.381,36.909,89.008,55.586,116.226,18.763-5.6,44.9-19.137,56.054-51.771a270.316,270.316,0,0,0,13.559-61.71c-.236-.186-.462-.368-.7-.554a553.352,553.352,0,0,1-68.407-65.067c-21.019-.595-43.977-5.276-68.56-14.011l-.7-.253c1.462,18.093,5.055,43.478,13.165,77.14" fill="#fff"/>
            </g>
            <g id="Group_79" data-name="Group 79" style="isolation: isolate">
              <g id="Group_78" data-name="Group 78" clip-path="url(#clip-path-14)">
                <g id="Group_77" data-name="Group 77" style="isolation: isolate">
                  <path id="Path_129" data-name="Path 129" d="M1069.422,717.906,1088.7,706.7a494.142,494.142,0,0,1-59.944-50.677l-19.282,11.205a494.052,494.052,0,0,0,59.944,50.677" fill="#ccc"/>
                  <path id="Path_130" data-name="Path 130" d="M1009.478,667.229l19.282-11.205c-8.665-8.564-17.592-17.994-26.547-28.3l-19.282,11.205c8.955,10.3,17.883,19.733,26.547,28.3" fill="#c7c7c7"/>
                  <path id="Path_131" data-name="Path 131" d="M982.931,638.932l19.282-11.205q-3.2-3.685-6.41-7.522l-19.281,11.206q3.2,3.836,6.409,7.521" fill="#c2c2c2"/>
                </g>
              </g>
            </g>
            <path id="Path_133" data-name="Path 133" d="M1075.335,829.427c.717-2.1,1.4-4.176,2.06-6.236.214-.665.414-1.32.621-1.98.439-1.4.87-2.786,1.284-4.162.227-.755.446-1.505.665-2.254q.563-1.92,1.094-3.814.317-1.127.623-2.247.523-1.923,1.014-3.816c.176-.678.357-1.36.527-2.032q.569-2.246,1.089-4.447c.1-.41.2-.827.3-1.235q.657-2.8,1.244-5.536c.106-.491.2-.97.3-1.458.281-1.334.556-2.661.813-3.969.127-.644.246-1.279.367-1.916q.327-1.713.63-3.4.177-.99.345-1.969.283-1.645.541-3.258c.1-.622.2-1.246.3-1.861.18-1.165.347-2.313.509-3.453.069-.487.144-.982.21-1.465q.33-2.412.613-4.75c.024-.2.042-.384.065-.579q.242-2.041.447-4.023c.053-.513.1-1.012.149-1.519.1-.992.19-1.978.275-2.946.047-.55.092-1.092.135-1.634q.111-1.369.206-2.7c.037-.527.074-1.054.108-1.573.059-.911.11-1.806.158-2.692.025-.456.053-.918.075-1.367.054-1.1.1-2.187.137-3.252.007-.2.018-.408.024-.606q.065-1.889.1-3.686c.007-.355.009-.7.014-1.045.011-.84.021-1.672.024-2.48,0-.418,0-.825,0-1.235,0-.717-.005-1.425-.013-2.116q-.008-.621-.017-1.229c-.012-.675-.026-1.334-.043-1.983-.01-.368-.019-.741-.03-1.1-.022-.718-.049-1.414-.077-2.1-.011-.255-.02-.52-.031-.769-.042-.922-.088-1.814-.139-2.671-.01-.173-.022-.331-.032-.5-.042-.678-.086-1.342-.132-1.976-.02-.282-.042-.549-.063-.822-.039-.5-.078-.991-.118-1.462-.025-.28-.049-.552-.074-.821-.04-.44-.08-.868-.121-1.28-.025-.245-.049-.492-.074-.728-.044-.419-.087-.818-.131-1.205-.022-.19-.043-.389-.064-.57-.06-.5-.118-.98-.175-1.424l-.016-.127c-.06-.465-.118-.886-.174-1.283-.012-.084-.024-.169-.036-.25-.053-.371-.1-.717-.152-1.022-.007-.047-.014-.087-.021-.132-.043-.276-.083-.526-.12-.744l-.019-.116c-.037-.222-.07-.409-.1-.563l-.023-.128c-.022-.118-.043-.233-.054-.3l19.281-11.205.055.3.022.121c.027.156.06.341.1.565l.02.119c.035.212.074.453.116.721.009.056.017.1.026.162.047.3.1.637.149,1,.013.09.026.181.039.275.055.391.112.805.172,1.263v.007c.005.039.01.086.015.126q.087.667.175,1.425c.021.182.043.379.064.569.044.389.088.786.132,1.206.024.236.049.481.073.728.041.413.082.838.122,1.28.025.27.049.541.073.822.04.466.079.951.117,1.446.022.281.044.554.065.844.045.619.088,1.264.129,1.924.011.187.024.362.035.553q.076,1.281.139,2.663c.011.251.02.518.03.774.029.683.055,1.376.078,2.093.011.361.02.733.029,1.1.017.649.032,1.308.043,1.983.007.406.013.815.017,1.23q.012,1.032.013,2.1c0,.417,0,.829,0,1.255,0,.8-.012,1.617-.023,2.445-.005.361-.007.712-.014,1.079-.022,1.2-.053,2.418-.1,3.673-.007.211-.018.433-.026.646-.038,1.054-.082,2.124-.136,3.218-.022.449-.049.911-.074,1.366-.048.887-.1,1.78-.158,2.691-.034.523-.072,1.051-.109,1.582q-.094,1.326-.2,2.686c-.044.549-.089,1.1-.138,1.654-.083.963-.176,1.942-.273,2.929-.05.51-.1,1.012-.149,1.528q-.205,1.98-.447,4.023c-.023.195-.042.383-.065.579q-.281,2.334-.613,4.75c-.066.481-.141.975-.21,1.46-.162,1.144-.33,2.295-.511,3.464-.094.61-.194,1.228-.293,1.845q-.261,1.619-.543,3.266-.169.984-.347,1.977c-.2,1.115-.41,2.243-.626,3.378-.122.644-.242,1.285-.37,1.935-.259,1.311-.533,2.639-.814,3.975-.1.482-.2.956-.3,1.442q-.589,2.736-1.245,5.541c-.1.408-.2.825-.3,1.235-.351,1.47-.711,2.95-1.09,4.447-.17.671-.35,1.352-.526,2.028q-.493,1.9-1.015,3.819c-.2.748-.413,1.5-.624,2.254q-.528,1.886-1.089,3.8c-.221.756-.442,1.509-.67,2.27-.413,1.374-.844,2.76-1.281,4.153-.208.662-.408,1.318-.622,1.984q-.992,3.09-2.061,6.236c-10.159,29.728-28.229,47.357-46.222,57.814l-19.281,11.205C1047.106,876.785,1065.175,859.156,1075.335,829.427Z" fill="#043179"/>
            <g id="Group_80" data-name="Group 80">
              <path id="Path_134" data-name="Path 134" d="M976.607,601.134c53.768,69.652,110.742,102.546,113.741,104.277.481,2.595,9.624,51.9-15.013,124.016s-95.835,73.032-99.582,73.08c-3.735-4.368-74.694-87.353-98.851-187.645S862.146,575.976,862.64,573.944C865.639,575.675,922.621,608.574,976.607,601.134Zm-77.98,118.149c15.8,65.627,57.587,126.619,77.213,152.686,19.7-3.362,61.7-15.984,77.824-63.175,13.487-39.5,15.914-71.749,15.758-90.888a505.567,505.567,0,0,1-92.9-86.5c-35.424,1.422-71.21-11.208-93.009-20.858-.255,19.112,1.99,54.232,15.114,108.731" fill="#82acf8"/>
            </g>
            <path id="Path_135" data-name="Path 135" d="M989.516,617.112q-1.815-2.148-3.631-4.355-.386-.468-.771-.938-1.827-2.229-3.654-4.509c-.141-.177-.282-.357-.423-.534q-1.72-2.159-3.436-4.367c-.138-.178-.277-.349-.415-.527l-.579-.748,19.282-11.2c.328.425.657.842.985,1.264q1.727,2.22,3.455,4.391c.136.171.272.345.409.516q1.828,2.288,3.658,4.515l.77.937q1.816,2.2,3.632,4.355c.172.2.344.4.516.607q1.713,2.021,3.422,3.991c.193.222.385.447.578.668q1.413,1.625,2.824,3.216c.125.142.25.279.375.42q1.233,1.387,2.464,2.75c.306.34.612.675.918,1.012q.97,1.066,1.938,2.12.5.545,1,1.083.95,1.026,1.9,2.036c.317.338.634.678.95,1.013q1.126,1.2,2.247,2.368c.181.189.362.382.543.57q1.392,1.452,2.775,2.87c.244.25.487.5.731.744q1.022,1.044,2.039,2.071l.957.96q.918.921,1.831,1.826l.905.9q1.579,1.559,3.147,3.077l.295.283q1.443,1.394,2.87,2.746l.791.751c1.032.974,2.059,1.939,3.078,2.884l.134.123q1.479,1.371,2.937,2.7.376.345.754.686c1,.91,2,1.811,2.992,2.692l.005.005c1,.888,1.983,1.755,2.964,2.614q.363.318.726.633c.925.806,1.844,1.6,2.754,2.382l.147.127q1.432,1.227,2.834,2.405l.708.594q1.275,1.07,2.528,2.1l.248.205q1.371,1.131,2.708,2.213l.639.516q1.179.953,2.332,1.871l.344.275q1.291,1.026,2.548,2.007l.587.457q1.091.849,2.155,1.668l.386.3q1.2.922,2.369,1.8c.19.144.379.285.568.427q.988.742,1.951,1.457c.136.1.275.206.411.306q1.121.829,2.2,1.616l.489.355q.912.663,1.795,1.3l.4.287q1.026.735,2.009,1.427l.432.3q.826.581,1.62,1.131l.386.269q.929.642,1.81,1.244l.341.231q.741.5,1.446.978l.381.256q.807.542,1.565,1.042c.1.07.2.135.309.2q.642.425,1.249.819l.322.21c.467.3.919.594,1.35.871l.2.13q.561.358,1.08.686l.281.177c.384.242.754.474,1.1.689l.108.067c.317.2.616.381.9.555l.211.13.835.508.072.043c.242.146.464.279.668.4l.126.075c.417.248.746.441.984.58l.1.06.238.138-19.281,11.205-.239-.138-.1-.06q-.357-.207-.985-.579l-.126-.075-.667-.4-.072-.043c-.257-.155-.539-.327-.835-.508l-.212-.13c-.284-.174-.582-.358-.9-.555l-.107-.066c-.347-.216-.716-.447-1.1-.69l-.281-.177q-.519-.328-1.079-.686l-.2-.13c-.429-.275-.878-.565-1.342-.866l-.342-.223q-.6-.39-1.234-.809l-.311-.2q-.758-.5-1.565-1.042l-.382-.257q-.7-.474-1.445-.977l-.341-.232q-.882-.6-1.811-1.244l-.388-.27q-.786-.546-1.6-1.12l-.453-.318q-.979-.69-2-1.421c-.132-.1-.267-.193-.4-.288q-.882-.633-1.8-1.3l-.489-.355q-1.077-.786-2.193-1.611l-.433-.322q-.953-.707-1.934-1.445c-.19-.143-.379-.284-.57-.429q-1.164-.877-2.362-1.795l-.41-.315q-1.05-.807-2.127-1.646l-.6-.472q-1.251-.978-2.534-2l-.369-.295q-1.138-.906-2.3-1.847l-.657-.531c-.889-.721-1.786-1.452-2.695-2.2l-.274-.227q-1.236-1.021-2.5-2.079l-.725-.609c-.932-.785-1.871-1.58-2.821-2.394l-.175-.151q-1.35-1.156-2.723-2.355l-.742-.648c-.978-.856-1.962-1.721-2.956-2.607l-.005-.005c-.987-.878-1.984-1.777-2.985-2.685l-.77-.7q-1.445-1.316-2.907-2.668l-.161-.149q-1.521-1.411-3.065-2.872l-.808-.765q-1.413-1.343-2.841-2.72c-.107-.1-.213-.2-.319-.307q-1.56-1.509-3.136-3.065c-.121-.119-.241-.234-.362-.354-.186-.184-.374-.374-.561-.559q-.9-.894-1.808-1.8l-.976-.98q-1-1.011-2.01-2.041c-.253-.258-.505-.513-.758-.773q-1.382-1.416-2.769-2.863c-.181-.189-.362-.381-.543-.57q-1.122-1.174-2.248-2.368c-.317-.337-.634-.677-.952-1.016q-.942-1.007-1.886-2.026-.507-.547-1.015-1.1-.957-1.04-1.915-2.1c-.313-.344-.625-.686-.938-1.033q-1.226-1.356-2.454-2.739c-.127-.143-.253-.282-.379-.424q-1.411-1.591-2.825-3.217c-.069-.079-.139-.157-.208-.237-.123-.141-.246-.289-.369-.43q-1.71-1.973-3.422-3.992C989.86,617.516,989.688,617.316,989.516,617.112Z" fill="#82acf8"/>
          </g>
        </g>
        <line id="Line_4" data-name="Line 4" x2="306.448" y2="177.688" transform="translate(1124.582 313.531)" fill="none" stroke="#043179" stroke-linecap="round" stroke-linejoin="round" stroke-width="5"/>
        <line id="Line_5" data-name="Line 5" x2="42.528" y2="24.659" transform="translate(1021.417 253.713)" fill="none" stroke="#043179" stroke-linecap="round" stroke-linejoin="round" stroke-width="5"/>
        <line id="Line_6" data-name="Line 6" y2="53.533" transform="translate(1012.151 548.089)" fill="none" stroke="#043179" stroke-linecap="round" stroke-linejoin="round" stroke-width="5"/>
        <line id="Line_7" data-name="Line 7" y2="156.603" transform="translate(1012.151 338.021)" fill="none" stroke="#043179" stroke-linecap="round" stroke-linejoin="round" stroke-width="5"/>
        <path id="Path_136" data-name="Path 136" d="M1119.628,723.7l260.091,150.163.772-246.143" fill="none" stroke="#043179" stroke-linecap="round" stroke-linejoin="round" stroke-width="5"/>
        <line id="Line_8" data-name="Line 8" y2="44.259" transform="translate(1398.11 801.515)" fill="none" stroke="#043179" stroke-linecap="round" stroke-linejoin="round" stroke-width="5"/>
        <line id="Line_9" data-name="Line 9" y2="167.717" transform="translate(1398.11 591.382)" fill="none" stroke="#043179" stroke-linecap="round" stroke-linejoin="round" stroke-width="5"/>
        <line id="Line_10" data-name="Line 10" y2="174.891" transform="translate(1341.842 175.852)" fill="none" stroke="#043179" stroke-linecap="round" stroke-linejoin="round" stroke-width="5"/>
        <line id="Line_11" data-name="Line 11" y2="40.395" transform="translate(1341.842 101.238)" fill="none" stroke="#043179" stroke-linecap="round" stroke-linejoin="round" stroke-width="5"/>
        <line id="Line_12" data-name="Line 12" x2="218.783" y2="126.315" transform="translate(1161.707 475.307)" fill="none" stroke="#043179" stroke-linecap="round" stroke-linejoin="round" stroke-width="5"/>
        <path id="Path_137" data-name="Path 137" d="M1341.871,90.942s-.66-18.744,17.837-10.165l419.969,242.469" fill="none" stroke="#043179" stroke-linecap="round" stroke-linejoin="round" stroke-width="5"/>
        <line id="Line_13" data-name="Line 13" x2="317.863" y2="183.518" transform="translate(1503.064 117.236)" fill="none" stroke="#043179" stroke-linecap="round" stroke-linejoin="round" stroke-width="5"/>
        <line id="Line_14" data-name="Line 14" x2="45.884" y2="26.491" transform="translate(1409.207 63.048)" fill="none" stroke="#043179" stroke-linecap="round" stroke-linejoin="round" stroke-width="5"/>
        <line id="Line_15" data-name="Line 15" x2="71.546" y2="41.307" transform="translate(1610.361 586.218)" fill="none" stroke="#043179" stroke-linecap="round" stroke-linejoin="round" stroke-width="5"/>
        <line id="Line_16" data-name="Line 16" y1="272.241" x2="0.772" transform="translate(1526.637 523.905)" fill="none" stroke="#043179" stroke-linecap="round" stroke-linejoin="round" stroke-width="5"/>
        <path id="Path_138" data-name="Path 138" d="M862.64,573.944s-20.588,174.7,113.113,328.563" fill="none" stroke="#043179" stroke-linecap="round" stroke-linejoin="round" stroke-width="5"/>
        <path id="Path_139" data-name="Path 139" d="M992.29,900.713s18.628-.788,48.1-21.062" fill="none" stroke="#043179" stroke-linecap="round" stroke-linejoin="round" stroke-width="5"/>
        <g id="Group_86" data-name="Group 86">
          <ellipse id="Ellipse_4" data-name="Ellipse 4" cx="42.567" cy="20.954" rx="42.567" ry="20.954" transform="translate(1622.327 893.074)" fill="#043179"/>
          <g id="Group_85" data-name="Group 85">
            <g id="Group_83" data-name="Group 83">
              <path id="Path_140" data-name="Path 140" d="M1614.868,829.038l.189,4.619,1.651,40.33c0,8.951,7.921,15.286,12.644,18.266,9.2,5.8,21.591,9.006,34.874,9.006s25.671-3.2,34.878-9.006c4.72-2.98,12.644-9.315,12.644-18.266l.972-23.769.868-21.18Z" fill="#82acf8"/>
              <path id="Path_141" data-name="Path 141" d="M1614.868,829.038l.189,4.619s33.642,38.807,97.663,16.561l.868-21.18Z" fill="#043179"/>
              <path id="Path_142" data-name="Path 142" d="M1606.385,797.256a23.675,23.675,0,0,0,.88,6.375c4.778,17.115,28.461,30.119,56.961,30.119s52.187-13,56.965-30.119a23.679,23.679,0,0,0,.88-6.375c0-20.157-25.9-36.5-57.845-36.5S1606.385,777.1,1606.385,797.256Z" fill="#cddefc"/>
              <path id="Path_143" data-name="Path 143" d="M1606.385,797.256v12.749c0,20.157,25.9,36.5,57.841,36.5s57.845-16.34,57.845-36.5V797.256a23.679,23.679,0,0,1-.88,6.375c-4.778,17.115-28.465,30.119-56.965,30.119s-52.183-13-56.961-30.119A23.675,23.675,0,0,1,1606.385,797.256Z" fill="#82acf8"/>
              <path id="Path_144" data-name="Path 144" d="M1664.227,826c14.006,0,27.063-3.371,36.766-9.493,4.978-3.141,13.328-9.818,13.328-19.253s-8.35-16.112-13.328-19.252c-9.7-6.123-22.76-9.494-36.766-9.494s-27.063,3.371-36.766,9.493c-4.977,3.141-13.327,9.818-13.327,19.253s8.35,16.112,13.327,19.253C1637.164,822.63,1650.222,826,1664.227,826Z" fill="#043179"/>
            </g>
            <g id="Group_84" data-name="Group 84">
              <path id="Path_145" data-name="Path 145" d="M1692.132,798.172c3.946-1.146,8.137-1.022,12.2-1.612s8.327-2.129,10.583-5.564c4.364-6.646-.95-16.322,2.967-23.241,2.377-4.2,7.544-6.047,12.365-6.267s9.618.835,14.444.846,10.054-1.279,13.01-5.094c3.914-5.049,2.437-12.245,1-18.471s-2.289-13.713,2.329-18.127c3.8-3.628,9.7-3.558,14.624-5.376,5.719-2.11,10.191-6.938,12.672-12.506a37.761,37.761,0,0,0,2.7-17.9c-1-14.809-8.491-29.348-20.807-37.631s-29.377-9.562-42.172-2.04-20.022,24-15.69,38.192c1.555,5.1,4.429,10.565,2.215,15.41-1.49,3.262-4.951,5.174-8.389,6.193s-7.069,1.376-10.408,2.684a19.378,19.378,0,0,0-4.55,33.551c2.208,1.654,4.768,2.837,6.794,4.708s3.477,4.776,2.565,7.38c-1.044,2.978-4.614,4.221-7.766,4.353s-6.42-.427-9.4.617c-3.762,1.319-6.287,5.02-7.271,8.882s-.678,7.923-.365,11.9l1.8,22.833a12.712,12.712,0,0,0,1.056,4.911c.765,1.473,2.75,3.131,4.539,2.42,2.37-.943.944-2.087,1.447-3.711C1685.842,801.594,1687.75,799.444,1692.132,798.172Z" fill="#cddefc"/>
              <path id="Path_146" data-name="Path 146" d="M1682.85,800.729a63.733,63.733,0,0,1,19.122-36.432c3.375-3.185,7.229-5.727,10.8-8.669,3.592-2.959,6.421-6.377,7.542-10.976,1.076-4.414.869-9.01,1.225-13.509.343-4.34,1.207-8.731,3.911-12.263,2.641-3.451,6.484-5.6,10.1-7.862,4.22-2.64,7.875-5.732,9.73-10.492a19.4,19.4,0,0,0,.035-14.2c-.555-1.4,1.7-2.005,2.253-.621a21.545,21.545,0,0,1-6.114,24.007c-3.344,2.778-7.315,4.625-10.756,7.26a16.579,16.579,0,0,0-4.364,4.765,18.487,18.487,0,0,0-2.087,6.212c-.761,4.469-.489,9.043-1.029,13.537a21.907,21.907,0,0,1-5.067,12.249c-3.1,3.549-7.157,6.062-10.81,8.983A61.186,61.186,0,0,0,1685.1,801.35C1684.879,802.832,1682.627,802.2,1682.85,800.729Z" fill="#82acf8"/>
              <path id="Path_147" data-name="Path 147" d="M1645.57,798.172c-3.946-1.146-8.137-1.022-12.2-1.612s-8.327-2.129-10.582-5.564c-4.364-6.646.95-16.322-2.967-23.241-2.377-4.2-7.544-6.047-12.365-6.267s-9.618.835-14.444.846-10.054-1.279-13.011-5.094c-3.913-5.049-2.437-12.245-1-18.471s2.29-13.713-2.329-18.127c-3.8-3.628-9.7-3.558-14.623-5.376-5.719-2.11-10.191-6.938-12.673-12.506a37.772,37.772,0,0,1-2.7-17.9c1-14.809,8.491-29.348,20.807-37.631s29.376-9.562,42.172-2.04,20.022,24,15.689,38.192c-1.554,5.1-4.428,10.565-2.215,15.41,1.491,3.262,4.952,5.174,8.39,6.193s7.069,1.376,10.408,2.684a19.378,19.378,0,0,1,4.55,33.551c-2.208,1.654-4.768,2.837-6.8,4.708s-3.476,4.776-2.564,7.38c1.044,2.978,4.614,4.221,7.766,4.353s6.42-.427,9.4.617c3.762,1.319,6.287,5.02,7.271,8.882s.678,7.923.365,11.9q-.9,11.416-1.8,22.833a12.709,12.709,0,0,1-1.055,4.911c-.765,1.473-2.75,3.131-4.539,2.42-2.37-.943-.945-2.087-1.447-3.711C1651.859,801.594,1649.952,799.444,1645.57,798.172Z" fill="#cddefc"/>
              <path id="Path_148" data-name="Path 148" d="M1654.851,800.729A63.744,63.744,0,0,0,1635.73,764.3c-3.375-3.185-7.229-5.727-10.8-8.669-3.592-2.959-6.421-6.377-7.542-10.976-1.076-4.414-.869-9.01-1.225-13.509-.343-4.34-1.208-8.731-3.911-12.263-2.642-3.451-6.484-5.6-10.1-7.862-4.22-2.64-7.875-5.732-9.73-10.492a19.4,19.4,0,0,1-.035-14.2c.555-1.4-1.7-2.005-2.253-.621a21.545,21.545,0,0,0,6.114,24.007c3.343,2.778,7.315,4.625,10.756,7.26a16.579,16.579,0,0,1,4.364,4.765,18.49,18.49,0,0,1,2.087,6.212c.76,4.469.489,9.043,1.029,13.537a21.912,21.912,0,0,0,5.066,12.249c3.1,3.549,7.158,6.062,10.811,8.983A61.18,61.18,0,0,1,1652.6,801.35C1652.823,802.832,1655.075,802.2,1654.851,800.729Z" fill="#82acf8"/>
              <path id="Path_149" data-name="Path 149" d="M1674.439,791.5c2.927-3.826,7.6-5.786,11.882-7.995s8.675-5.214,10.024-9.839c1.807-6.193-2.509-12.378-6.761-17.23s-9.017-10.425-8.26-16.831c.6-5.1,4.667-9.139,9.052-11.819s9.311-4.459,13.448-7.506c11.6-8.547,13.868-27.251,4.639-38.319-3.411-4.09-7.963-7.055-11.759-10.791s-6.958-8.771-6.335-14.061c1.023-8.674,10.816-12.85,17.145-18.869,8.088-7.692,10.881-19.556,10.707-30.716-.295-18.97-8.448-37.867-22.658-50.437s-34.4-18.363-52.945-14.376-34.833,17.97-40.769,35.989-.87,39.4,13.1,52.237c4.582,4.211,9.963,7.5,14.447,11.812s8.142,10.1,7.827,16.318c-.707,14-20.153,21.923-19.826,35.936.2,8.433,7.62,14.689,14.529,19.529s14.6,10.434,15.829,18.78c1.2,8.211-4.338,15.665-8.79,22.668s-7.973,16.442-3.144,23.19c3.2,4.468,8.958,6.069,13.855,8.561s9.695,7.534,8.108,12.794c-.506,1.675-1.628,3.152-1.884,4.883-.658,4.435,4.989,7.648,9.312,6.46,3.461-.951,8.841-4.831,8.766-8.625-.037-1.844-1.718-3.6-1.655-5.78A10.531,10.531,0,0,1,1674.439,791.5Z" fill="#82acf8"/>
              <path id="Path_150" data-name="Path 150" d="M1659,604.98c-1-1.118.648-2.776,1.652-1.652,7.137,7.992,9.148,19.069,8.564,29.484-.711,12.7-5.132,24.8-6.593,37.385-1.526,13.142.06,26.378,2.233,39.352,2.1,12.563,4.75,25.055,5.793,37.771.985,12.017.561,24.377-3.172,35.931q-.695,2.151-1.54,4.247c-.552,1.379-2.813.777-2.253-.621,4.474-11.164,5.531-23.244,4.922-35.169-.634-12.413-3.042-24.613-5.192-36.827-2.253-12.8-4.267-25.792-3.611-38.829.646-12.831,4.788-25.018,6.529-37.68,1.4-10.188.878-21.487-4.955-30.318A26.772,26.772,0,0,0,1659,604.98Z" fill="#cddefc"/>
            </g>
          </g>
          <line id="Line_17" data-name="Line 17" x2="1.065" y2="26.025" transform="translate(1615.583 846.502)" fill="none" stroke="#043179" stroke-linecap="round" stroke-linejoin="round" stroke-width="5"/>
          <path id="Path_151" data-name="Path 151" d="M1709.172,882.616s-11.447,20.912-50.356,18.461" fill="none" stroke="#043179" stroke-linecap="round" stroke-linejoin="round" stroke-width="5"/>
          <path id="Path_152" data-name="Path 152" d="M1790.509,695.616a43.589,43.589,0,0,0,.527-10.758c-1-14.809-8.491-29.348-20.807-37.631s-29.377-9.562-42.172-2.04c-11.82,6.948-18.888,21.537-16.481,34.912" fill="none" stroke="#043179" stroke-linecap="round" stroke-linejoin="round" stroke-width="5"/>
          <path id="Path_153" data-name="Path 153" d="M1677.591,801.887a12.712,12.712,0,0,0,1.056,4.911c.765,1.473,2.75,3.131,4.539,2.42,2.37-.943.944-2.087,1.447-3.711,1.209-3.913,3.117-6.063,7.5-7.335,3.946-1.146,8.137-1.022,12.2-1.612s8.327-2.129,10.583-5.564c4.364-6.646-.95-16.322,2.967-23.241,2.377-4.2,7.544-6.047,12.365-6.267s9.618.835,14.444.846,10.054-1.279,13.01-5.094c3.914-5.049,2.437-12.245,1-18.471s-2.289-13.713,2.329-18.127c3.8-3.628,9.7-3.558,14.624-5.376a20.321,20.321,0,0,0,6.188-3.685" fill="none" stroke="#043179" stroke-linecap="round" stroke-linejoin="round" stroke-width="5"/>
          <path id="Path_154" data-name="Path 154" d="M1642.944,749.732c-1.29,2.127-2.682,4.208-3.98,6.251-4.453,7-7.973,16.442-3.144,23.19,3.2,4.468,8.958,6.069,13.855,8.561s9.695,7.534,8.108,12.794c-.506,1.675-1.628,3.152-1.884,4.883-.658,4.435,4.989,7.648,9.312,6.46,3.461-.951,8.841-4.831,8.766-8.625-.037-1.844-1.718-3.6-1.655-5.78a10.531,10.531,0,0,1,2.117-5.963c2.927-3.826,7.6-5.786,11.882-7.995s8.675-5.214,10.024-9.839c1.807-6.193-2.509-12.378-6.761-17.23s-9.017-10.425-8.26-16.831c.6-5.1,4.667-9.139,9.052-11.819s9.311-4.459,13.448-7.506c6.216-4.578,9.752-12.071,10.277-19.743" fill="none" stroke="#043179" stroke-linecap="round" stroke-linejoin="round" stroke-width="5"/>
          <path id="Path_155" data-name="Path 155" d="M1702.309,642.511a59.134,59.134,0,0,0,5.205-4.268c8.088-7.692,10.881-19.556,10.707-30.716-.295-18.97-8.448-37.867-22.658-50.437s-34.4-18.363-52.945-14.376-34.833,17.97-40.769,35.989-.87,39.4,13.1,52.237c4.582,4.211,9.963,7.5,14.447,11.812s8.142,10.1,7.827,16.318a16.133,16.133,0,0,1-.859,4.407" fill="none" stroke="#043179" stroke-linecap="round" stroke-linejoin="round" stroke-width="5"/>
          <path id="Path_156" data-name="Path 156" d="M1595.567,640.508a36.388,36.388,0,0,1,14.078,4.679,33.884,33.884,0,0,1,10.05,9.152" fill="none" stroke="#043179" stroke-linecap="round" stroke-linejoin="round" stroke-width="5"/>
          <path id="Path_157" data-name="Path 157" d="M1654.516,809.218c-2.37-.943-.945-2.087-1.447-3.711-1.21-3.913-3.117-6.063-7.5-7.335-3.946-1.146-8.137-1.022-12.2-1.612s-8.327-2.129-10.582-5.564c-4.364-6.646.95-16.322-2.967-23.241-2.377-4.2-7.544-6.047-12.365-6.267s-9.618.835-14.444.846-10.054-1.279-13.011-5.094c-3.913-5.049-2.437-12.245-1-18.471s2.29-13.713-2.329-18.127c-3.8-3.628-9.7-3.558-14.623-5.376-5.719-2.11-10.191-6.938-12.673-12.506a37.772,37.772,0,0,1-2.7-17.9c1-14.809,8.491-29.348,20.807-37.631a40.111,40.111,0,0,1,4.807-2.766" fill="none" stroke="#043179" stroke-linecap="round" stroke-linejoin="round" stroke-width="5"/>
        </g>
        <g id="Group_88" data-name="Group 88">
          <g id="Group_87" data-name="Group 87">
            <path id="Path_158" data-name="Path 158" d="M941.6,707.732a13.99,13.99,0,0,0-5.2-1.941,4.293,4.293,0,0,0-3.583.9,4.8,4.8,0,0,0-1.278,3.669q-.014,5,5.052,10.794,1.554,1.786,4.008,4.151a26.16,26.16,0,0,1,3.427,3.814,5.332,5.332,0,0,1,.971,3.036q0,1.4-.911,1.649a3.453,3.453,0,0,1-2.467-.649,9.638,9.638,0,0,1-3.518-3.175,7.819,7.819,0,0,1-1.076-4.181l-6.307-3.64A15.077,15.077,0,0,0,932,728.151a20.613,20.613,0,0,0,3.861,5.818,24.261,24.261,0,0,0,5.741,4.623q4.494,2.6,7.085,1.844c1.722-.508,2.59-2.067,2.6-4.69q.013-4.92-4.21-10.164a48.269,48.269,0,0,0-4.437-4.718,29.372,29.372,0,0,1-3.777-4.119,5,5,0,0,1-1.067-2.712c0-.876.328-1.414.98-1.608a3.624,3.624,0,0,1,2.665.679,7.4,7.4,0,0,1,2.64,2.536,6.333,6.333,0,0,1,.97,3.407l6.273,3.622a13.91,13.91,0,0,0-1.222-5.583,19.053,19.053,0,0,0-3.459-5.286,21.014,21.014,0,0,0-5.044-4.068" fill="#043179"/>
            <path id="Path_159" data-name="Path 159" d="M962.229,738.887l2.827-8.785,2.782,12.023-5.609-3.238m5.807-15.482-5.913-3.414-9.658,24.46,6.723,3.881,1.522-4.733,8.618,4.976,1.507,6.482,6.759,3.9-9.558-35.554" fill="#043179"/>
            <path id="Path_160" data-name="Path 160" d="M997.033,740.146l-17.455-10.078-.085,29.987,6.29,3.631.034-11.945,10.145,5.857.016-5.561-10.145-5.857.02-6.9,11.165,6.446.016-5.58" fill="#043179"/>
            <path id="Path_161" data-name="Path 161" d="M1017.663,752.057l-18.013-10.4-.085,29.987,17.977,10.379.016-5.561-11.687-6.748.02-7.167,9.894,5.712.015-5.356-9.894-5.712.018-6.324,11.724,6.769.016-5.58" fill="#043179"/>
          </g>
        </g>
        <g id="Group_89" data-name="Group 89">
          <path id="Path_162" data-name="Path 162" d="M1251.1,966.5l24,18.5a5.891,5.891,0,0,1,.584,8.492c-6.852,8.011-26.311-3.656-28.061-7.3,0,0-5.676,2.1-13.445-3.1,0,0-2.253-2.563-.593-12.821Z" fill="#82acf8"/>
          <path id="Path_163" data-name="Path 163" d="M1221.492,897.128l.367,1.285c-1.7,28.755,9.484,70.942,9.484,70.942,13.866,6.388,20.727-4.054,20.727-4.054s-4.46-14.023-6.231-58.912-13.394-85.594-13.394-85.594l-2.636.6-28.348,6.454Z" fill="#cddefc"/>
          <path id="Path_164" data-name="Path 164" d="M1218.317,869.056c-1.456-11.137-2.02-22.786,1.994-33.267a40.334,40.334,0,0,1,9.5-14.39l-28.348,6.454,20.031,69.275C1221.361,887.749,1219.55,878.4,1218.317,869.056Z" fill="#82acf8"/>
          <path id="Path_165" data-name="Path 165" d="M1180.121,970.621s3.217,25.927-2.394,29.162-15.125-1.753-16.135-6.74.011-19.775,2.618-24.382S1180.121,970.621,1180.121,970.621Z" fill="#82acf8"/>
          <path id="Path_166" data-name="Path 166" d="M1216.953,828.336s-33.927,101.117-35.1,141.64a19.588,19.588,0,0,1-20.208-3.117s-1.038-47.825,5.738-68.888c0,0,6.856-41.327,4.624-58.069s5.69-22.454,5.69-22.454Z" fill="#cddefc"/>
          <path id="Path_167" data-name="Path 167" d="M1215.919,721.121a26.325,26.325,0,0,1,15.033,14.682c4.82,11.535,1.574,79.44,3.358,83.905,0,0-14.346,20.316-56.9,0,0,0,4.531-29.919-5.143-47.9s-6.312-44.418,22.209-51.666Z" fill="#043179"/>
          <path id="Path_168" data-name="Path 168" d="M1210.729,727.45v3.864a1.935,1.935,0,0,1-2.192,1.923c-3.995-.554-12.214-2.373-14.056-8.071v-6.313Z" fill="#cddefc"/>
          <path id="Path_169" data-name="Path 169" d="M1210.729,722.8v4.653s-12.243-2.184-16.248-8.6v-4.061Z" fill="#82acf8"/>
          <path id="Path_170" data-name="Path 170" d="M1197.746,714.792a20.24,20.24,0,0,1-16.235-14.782,27.476,27.476,0,0,1,.039-11.833,30.327,30.327,0,0,1,4.267-11.039,18.532,18.532,0,0,1,9.1-7.367,17.815,17.815,0,0,1,13.241.934c4.109,1.925,7.062,5.121,9.569,8.9a6.315,6.315,0,0,1,7.758,3.618,10.3,10.3,0,0,1-.227,6.349,31.8,31.8,0,0,1-6.753,12.266C1212.995,708.042,1204.978,710.735,1197.746,714.792Z" fill="#043179"/>
          <path id="Path_171" data-name="Path 171" d="M1255.994,751.974c3.233,1.634,9.168,3.975,12.4,5.61.852-1.2,1.108-3.282,1.96-4.483,1.949.453,6.807.2,8.831-2.5,1.63-2.172,2.1-4.936,2.23-7.648.086-1.761.148-3.632-.726-5.163-1.135-1.99-3.536-2.864-5.793-3.254s-5.5-.219-7.538-1.269a57.427,57.427,0,0,0-.067-6.36,12.592,12.592,0,0,0-1.88-6.283,3.167,3.167,0,0,0-2.347-1.77,2.46,2.46,0,0,0-2.2,1.871,7.959,7.959,0,0,0-.067,3.086,50.192,50.192,0,0,1-2.962,22.527C1257.178,748.078,1256.751,750.275,1255.994,751.974Z" fill="#fff"/>
          <path id="Path_172" data-name="Path 172" d="M1219.029,691.852s4.208,33.431-9.352,32.262-16.131-10.615-16.131-10.615-9.585-8.034-3.974-8.762h4.208s-3.507-10.08.468-10.548S1208.432,704.343,1219.029,691.852Z" fill="#cddefc"/>
          <path id="Path_173" data-name="Path 173" d="M1233.552,761.133l4.179,13.3,18.7-24.819s11.222,1.651,15.586,8.762c0,0-24.121,36.686-38.468,41.362C1233.552,799.743,1230.308,768.7,1233.552,761.133Z" fill="#043179"/>
          <path id="Path_174" data-name="Path 174" d="M1174.876,731.559s-30.424,33.612-33.23,53.645,24.128,47.151,25.741,47.151,14.47-8.65,14.47-8.65-22.677-33.285-21.04-38.5,13.793-14.1,13.793-14.1S1180.519,737.134,1174.876,731.559Z" fill="#043179"/>
          <path id="Path_175" data-name="Path 175" d="M1180.652,824.509s6.193,1.612,8.452,3.794l2.65,4.052-12.78,13.794s-10.566-7.062-10.582-14.13Z" fill="#fff"/>
          <path id="Path_176" data-name="Path 176" d="M1265.72,743.5c.068-1.347.247-2.69.436-4.024a9.252,9.252,0,0,1,.912-3.187,3.793,3.793,0,0,1,4.834-1.892c.765.356.1,1.487-.662,1.133-1.542-.718-2.753.737-3.3,2.076a51.864,51.864,0,0,1,12.558,2.649c.793.275.452,1.543-.348,1.265a50.483,50.483,0,0,0-12.435-2.627.633.633,0,0,1-.128-.037,25.025,25.025,0,0,0-.5,3.642,44.064,44.064,0,0,1,12.326,2.113c.8.26.457,1.527-.349,1.265a42.822,42.822,0,0,0-12.04-2.07c0,.109-.01.22-.012.328a11.44,11.44,0,0,0,.506,3.711,83.874,83.874,0,0,1,11.5,1.6c.825.175.476,1.44-.349,1.265a81.292,81.292,0,0,0-10.556-1.506c.069.122.114.255.19.374a4.936,4.936,0,0,0,4.666,2.363c.837-.094.831,1.219,0,1.312a6.189,6.189,0,0,1-5.649-2.79A11.166,11.166,0,0,1,1265.72,743.5Z" fill="#cddefc"/>
          <path id="Path_177" data-name="Path 177" d="M1212.759,701.684a19.006,19.006,0,0,1,.931,12.927.656.656,0,0,1-1.265-.349,17.586,17.586,0,0,0-.8-11.916C1211.287,701.581,1212.417,700.913,1212.759,701.684Z" fill="#82acf8"/>
          <path id="Path_178" data-name="Path 178" d="M1177.729,846.639a168.786,168.786,0,0,0,14.047-14.94c.541-.649,1.464.283.928.928a169.228,169.228,0,0,1-14.047,14.94C1178.043,848.145,1177.113,847.219,1177.729,846.639Z" fill="#82acf8"/>
        </g>
      </g>
    </g>
    <g id="CTA">
      <rect id="Rectangle_2" data-name="Rectangle 2" width="363.821" height="98.19" transform="translate(200.871 731.997)" fill="#f76e1d"/>
      <text id="SECURE_NOW" data-name="SECURE NOW" transform="translate(304.017 793.102)" fill="#fff" font-size="34.501" font-family="Antonio-Bold, Antonio" font-weight="700"><tspan x="0" y="0">SECURE NOW</tspan></text>
    </g>
    <g id="Logo">
      <g id="Group_94" data-name="Group 94">
        <g id="Group_91" data-name="Group 91">
          <path id="Path_179" data-name="Path 179" d="M173.533,148.47a47.272,47.272,0,0,1-22.431-6.609,47.267,47.267,0,0,1-22.43,6.609s-1.923,7.93,2.884,22.711,19.546,22.35,19.546,22.35,14.74-7.57,19.547-22.35S173.533,148.47,173.533,148.47Z" fill="#043179"/>
        </g>
        <g id="Group_92" data-name="Group 92">
          <path id="Path_180" data-name="Path 180" d="M151.1,188.295c-3.874-2.522-12.126-8.833-15.272-18.505-2.632-8.093-3.091-13.854-3.049-17.115a52.318,52.318,0,0,0,18.321-5.623,52.325,52.325,0,0,0,18.3,5.621,54.074,54.074,0,0,1-3.033,17.117C163.229,179.462,154.977,185.773,151.1,188.295Z" fill="#fff"/>
        </g>
        <g id="Group_93" data-name="Group 93">
          <path id="Path_181" data-name="Path 181" d="M151.1,182.8c-3.688-2.812-8.822-7.712-11-14.4a57.184,57.184,0,0,1-2.632-11.9l.137-.026a55.636,55.636,0,0,0,13.492-4.378,55.664,55.664,0,0,0,13.492,4.378l.138.026a57.25,57.25,0,0,1-2.632,11.9C159.924,175.089,154.79,179.989,151.1,182.8Z" fill="#043179"/>
        </g>
      </g>
      <g id="Group_95" data-name="Group 95">
        <path id="Path_182" data-name="Path 182" d="M186.649,173.821v-2.3h3.721v2.593a8.678,8.678,0,0,0,.366,3.025,1.363,1.363,0,0,0,1.377.872,1.325,1.325,0,0,0,1.341-.718,6.064,6.064,0,0,0,.329-2.344,6.42,6.42,0,0,0-.586-2.834,10.029,10.029,0,0,0-1.86-2.527l-1.9-1.963a11.7,11.7,0,0,1-2.073-2.886,7.7,7.7,0,0,1-.74-3.457,7.573,7.573,0,0,1,1.231-4.746q1.23-1.552,4.233-1.553t4.065,1.809a10.6,10.6,0,0,1,1.062,5.281v1.6h-3.618v-1.846a8,8,0,0,0-.322-2.688,1.217,1.217,0,0,0-1.238-.813,1.459,1.459,0,0,0-1.319.615,3.415,3.415,0,0,0-.4,1.846,4.012,4.012,0,0,0,.41,1.963,10.6,10.6,0,0,0,1.479,1.875l2.124,2.3a13.5,13.5,0,0,1,2.41,3.5,9.162,9.162,0,0,1,.813,3.867,9.384,9.384,0,0,1-1.216,5.347q-1.217,1.728-4.255,1.728t-4.234-1.926A10.766,10.766,0,0,1,186.649,173.821Z" fill="#043179"/>
        <path id="Path_183" data-name="Path 183" d="M200.419,181.072V155.291h8.643v3.384h-4.717v7.5h4.482v3.31h-4.482v8.2h4.892v3.384Z" fill="#043179"/>
        <path id="Path_184" data-name="Path 184" d="M221.923,179.571a4.876,4.876,0,0,1-4.19,1.794,4.968,4.968,0,0,1-4.27-1.911,9.147,9.147,0,0,1-1.413-5.5V162.718q0-5.757,3.017-7.193a6.271,6.271,0,0,1,2.7-.527q5.435,0,5.434,6.856V165.4H219.4V162.1a8.537,8.537,0,0,0-.337-2.85,1.289,1.289,0,0,0-1.318-.857,1.367,1.367,0,0,0-1.362.909,7.62,7.62,0,0,0-.381,2.783v12.041a8.586,8.586,0,0,0,.366,2.974,1.437,1.437,0,0,0,2.666-.015,8.783,8.783,0,0,0,.366-3v-3.691h3.853v3.647Q223.256,177.776,221.923,179.571Z" fill="#043179"/>
        <path id="Path_185" data-name="Path 185" d="M236.322,179.688a6.424,6.424,0,0,1-8.664-.007Q226.3,178,226.3,174.451V155.276h3.926v19.1a8.933,8.933,0,0,0,.19,2.476,3.922,3.922,0,0,0,.461.8,1.361,1.361,0,0,0,1.121.359,1.41,1.41,0,0,0,1.216-.5,2.512,2.512,0,0,0,.447-1.238,18.376,18.376,0,0,0,.08-1.9v-19.1h3.926v19.175Q237.67,178.011,236.322,179.688Z" fill="#043179"/>
        <path id="Path_186" data-name="Path 186" d="M246.576,168.958l-1.26-.059v12.173h-3.925V155.291h6.489a4.7,4.7,0,0,1,3.017.813,3.866,3.866,0,0,1,1.311,2.271,18.64,18.64,0,0,1,.315,3.808,9.977,9.977,0,0,1-.5,3.582,2.778,2.778,0,0,1-1.845,1.655,2.391,2.391,0,0,1,1.86,1.8,25.187,25.187,0,0,1,.527,6.526,42.269,42.269,0,0,0,.147,5.324h-3.926q-.147-.293-.146-9.243a4.257,4.257,0,0,0-.411-2.278A2.015,2.015,0,0,0,246.576,168.958Zm-1.245-3.1H246.9a1.572,1.572,0,0,0,1.106-.337,2.024,2.024,0,0,0,.5-1.158,16.3,16.3,0,0,0,.14-2.5v-.162a6.777,6.777,0,0,0-.352-2.739q-.351-.645-1.626-.644h-1.333Z" fill="#043179"/>
        <path id="Path_187" data-name="Path 187" d="M256.186,181.072V155.291h8.642v3.384h-4.717v7.5h4.483v3.31h-4.483v8.2H265v3.384Z" fill="#043179"/>
        <path id="Path_188" data-name="Path 188" d="M268.388,181.072v-3.6h3.3v3.6Z" fill="#043179"/>
        <path id="Path_189" data-name="Path 189" d="M285.482,179.571a4.874,4.874,0,0,1-4.189,1.794,4.967,4.967,0,0,1-4.27-1.911,9.147,9.147,0,0,1-1.414-5.5V162.718q0-5.757,3.018-7.193a6.266,6.266,0,0,1,2.695-.527q5.435,0,5.435,6.856V165.4h-3.794V162.1a8.537,8.537,0,0,0-.337-2.85,1.289,1.289,0,0,0-1.318-.857,1.367,1.367,0,0,0-1.363.909,7.62,7.62,0,0,0-.381,2.783v12.041a8.581,8.581,0,0,0,.367,2.974,1.437,1.437,0,0,0,2.666-.015,8.782,8.782,0,0,0,.366-3v-3.691h3.852v3.647Q286.815,177.776,285.482,179.571Z" fill="#043179"/>
        <path id="Path_190" data-name="Path 190" d="M299.735,179.505a4.964,4.964,0,0,1-4.314,1.86,5.057,5.057,0,0,1-4.35-1.867,9.436,9.436,0,0,1-1.384-5.633V162.073q0-7.089,5.786-7.09a4.958,4.958,0,0,1,4.3,1.8,8.931,8.931,0,0,1,1.311,5.288v11.792A9.62,9.62,0,0,1,299.735,179.505Zm-5.749-2.432a1.551,1.551,0,0,0,2.82-.022,10.172,10.172,0,0,0,.337-3.142V161.9a7.581,7.581,0,0,0-.345-2.673,1.318,1.318,0,0,0-1.347-.842,1.433,1.433,0,0,0-1.407.842,6.543,6.543,0,0,0-.4,2.659v12.026A9.911,9.911,0,0,0,293.986,177.073Z" fill="#043179"/>
      </g>
    </g>
    <g id="Text">
      <text id="CUTTING-EDGE_SECURITY" data-name="CUTTING-EDGE
SECURITY" transform="translate(201.085 419.443)" fill="#043179" font-size="120" font-family="Antonio-Bold, Antonio" font-weight="700"><tspan x="0" y="0">CUTTING-EDGE</tspan><tspan x="0" y="144">SECURITY</tspan></text>
      <text id="Lorem_ipsum_dolor_sit_amet_consectetuer_adipiscing_elit_sed_diam_nonummy_nibh_euismod_tincidunt_ut_laoreet_dolore_magna_aliquam_erat_volut" data-name="Lorem ipsum dolor sit amet, consectetuer adipiscing elit, sed diam nonummy nibh euismod tincidunt ut laoreet dolore magna aliquam erat volut" transform="translate(206.624 605.049)" font-size="21" font-family="Montserrat-Regular, Montserrat"><tspan x="0" y="20">Lorem ipsum dolor sit amet, consectetuer adipiscing elit, </tspan><tspan x="0" y="45.2">sed diam nonummy nibh euismod tincidunt ut laoreet </tspan><tspan x="0" y="70.4">dolore magna aliquam erat volut</tspan></text>
    </g>
    <g id="Social_Media" data-name="Social Media">
      <g id="Group_96" data-name="Group 96">
        <path id="Path_191" data-name="Path 191" d="M562.495,938.651a12.5,12.5,0,0,1-2.295,2.641,2.768,2.768,0,0,1-.5.413,1.121,1.121,0,0,0-.569,1.144,20.085,20.085,0,0,1-4.46,12.744,18.363,18.363,0,0,1-6.451,5.2,18.668,18.668,0,0,1-6.494,1.821,17.943,17.943,0,0,1-2.308.165,21.984,21.984,0,0,1-5.248-.749,20.079,20.079,0,0,1-5.19-2.293,1.2,1.2,0,0,1-.111-.1,14.108,14.108,0,0,0,10.189-2.87,6.944,6.944,0,0,1-4.614-1.892,6.7,6.7,0,0,1-1.842-2.92,7.113,7.113,0,0,0,3.05-.116,7.02,7.02,0,0,1-4.708-3.607,6.874,6.874,0,0,1-.78-3.268,7.552,7.552,0,0,0,3.1.855A7.02,7.02,0,0,1,530.4,941.6a6.881,6.881,0,0,1,.756-5.011,19.845,19.845,0,0,0,14.281,7.231,6.938,6.938,0,0,1,5.879-8.44,6.785,6.785,0,0,1,5.768,1.924.578.578,0,0,0,.436.124,12.761,12.761,0,0,0,3.512-1.275c.179-.095.36-.186.608-.314a5.838,5.838,0,0,1-1.141,2.137c-.513.582-1.1,1.1-1.71,1.7.81-.2,1.588-.375,2.358-.581.457-.123.9-.289,1.353-.436Z" fill="#043179"/>
      </g>
      <g id="Group_97" data-name="Group 97">
        <path id="Path_192" data-name="Path 192" d="M326.172,949.133c0,3.822,0,7.521,0,11.219,0,1.555-.015,3.109.015,4.663.013.641-.227.878-.867.868-1.8-.026-3.6-.033-5.4,0-.718.014-.937-.248-.934-.952.024-4.959.013-9.918.014-14.877,0-.986,0-.977-.966-.949-.617.018-1.234,0-1.85,0-.422,0-.61-.194-.6-.64q.027-2.331,0-4.663c-.006-.476.165-.678.643-.664.616.018,1.233,0,1.849,0,.951.006.933.008.948-.975.022-1.429-.012-2.865.127-4.283a6.014,6.014,0,0,1,6.028-5.561c1.773-.056,3.548-.069,5.322-.126.625-.02.885.194.867.855q-.06,2.145,0,4.292c.018.618-.246.76-.786.756-.936-.008-1.876-.019-2.808.053a1.561,1.561,0,0,0-1.608,1.665c-.046.861-.027,1.724-.064,2.586-.022.506.156.694.685.676,1.158-.039,2.318-.02,3.478-.016.982,0,1.025.032.945.987-.124,1.472-.3,2.94-.42,4.412-.041.519-.276.675-.754.67C328.777,949.124,327.524,949.133,326.172,949.133Z" fill="#043179"/>
      </g>
      <g id="Group_98" data-name="Group 98">
        <path id="Path_193" data-name="Path 193" d="M450.07,939.139l-15.736,8.681L418.6,939.139Z" fill="#043179"/>
        <path id="Path_194" data-name="Path 194" d="M452.3,940.36v18.594H416.383V940.36l17.951,9.9Z" fill="#043179"/>
      </g>
      <g id="Group_100" data-name="Group 100">
        <g id="Group_99" data-name="Group 99">
          <path id="Path_195" data-name="Path 195" d="M226.566,964.564H209.457a7.925,7.925,0,0,1-7.916-7.916V941.44a7.925,7.925,0,0,1,7.916-7.916h17.109a7.925,7.925,0,0,1,7.915,7.916v15.208A7.925,7.925,0,0,1,226.566,964.564Zm-17.109-28.04a4.921,4.921,0,0,0-4.916,4.916v15.208a4.921,4.921,0,0,0,4.916,4.916h17.109a4.921,4.921,0,0,0,4.915-4.916V941.44a4.921,4.921,0,0,0-4.915-4.916Z" fill="#043179"/>
          <path id="Path_196" data-name="Path 196" d="M218.487,956.989a7.935,7.935,0,1,1,7.935-7.935A7.945,7.945,0,0,1,218.487,956.989Zm0-12.87a4.935,4.935,0,1,0,4.935,4.935A4.941,4.941,0,0,0,218.487,944.119Z" fill="#043179"/>
          <circle id="Ellipse_5" data-name="Ellipse 5" cx="1.22" cy="1.22" r="1.22" transform="translate(225.038 939.149)" fill="#043179"/>
        </g>
      </g>
    </g>
    <g id="Menu">
      <text id="SERVICE" transform="translate(517.221 184.783)" fill="#043179" font-size="30" font-family="Antonio-Bold, Antonio" font-weight="700"><tspan x="0" y="0">SERVICE</tspan></text>
      <text id="SIGN_IN" data-name="SIGN IN" transform="translate(933.91 184.783)" fill="#043179" font-size="30" font-family="Antonio-Bold, Antonio" font-weight="700"><tspan x="0" y="0">SIGN IN</tspan></text>
      <text id="ABOUT_US" data-name="ABOUT US" transform="translate(715.771 184.783)" fill="#043179" font-size="30" font-family="Antonio-Bold, Antonio" font-weight="700"><tspan x="0" y="0">ABOUT US</tspan></text>
      <g id="Group_101" data-name="Group 101">
        <circle id="Ellipse_6" data-name="Ellipse 6" cx="9.001" cy="9.001" r="9.001" transform="translate(1139.609 158.695)" fill="none" stroke="#043179" stroke-miterlimit="10" stroke-width="3"/>
        <line id="Line_18" data-name="Line 18" x1="6.2" y1="6.21" transform="translate(1154.974 174.052)" fill="none" stroke="#043179" stroke-miterlimit="10" stroke-width="5"/>
      </g>
    </g>
  </g>
</svg>
